<svg width="24" height="24" viewBox="0 0 24 24" fill="none" xmlns="http://www.w3.org/2000/svg">
<g clip-path="url(#clip0_208_14212)">
<path d="M8.43789 7.02755L10.8398 15.9922L20.7593 13.3344L18.3574 4.36975L8.43789 7.02755Z" fill="white"/>
<path d="M8.31576 22.2897C9.37737 22.2897 10.238 21.4291 10.238 20.3675C10.238 19.3059 9.37737 18.4453 8.31576 18.4453C7.25416 18.4453 6.39355 19.3059 6.39355 20.3675C6.39355 21.4291 7.25416 22.2897 8.31576 22.2897Z" fill="#ED6700"/>
<path d="M14.4737 15.0192L17.126 14.3086L14.724 5.34395L12.0718 6.05459L14.4737 15.0192Z" fill="#007FD8"/>
<path d="M22.8818 12.7677L8.71875 16.5625L9.28726 18.6843L23.4503 14.8895L22.8818 12.7677Z" fill="#FF7D00"/>
<path d="M2.17698 4.67058L5.30664 3.83203L4.73813 1.71023L1.60847 2.54878L2.17698 4.67058Z" fill="#FF7D00"/>
<path d="M23.9807 14.7474L23.4121 12.6254C23.3744 12.4847 23.2824 12.3648 23.1562 12.292C23.0302 12.2192 22.8803 12.1994 22.7395 12.2371L21.1481 12.6636L18.888 4.2289C18.8503 4.08818 18.7583 3.96827 18.6321 3.89543C18.506 3.82258 18.3562 3.8029 18.2154 3.84058L8.29535 6.49868C8.00242 6.57715 7.82852 6.87832 7.90699 7.17134L10.167 15.606L9.10605 15.8902L5.26825 1.56719C5.23051 1.42647 5.13854 1.30656 5.01236 1.23372C4.88617 1.16088 4.73626 1.14119 4.59564 1.17888L1.46579 2.01756C1.17286 2.09603 0.998958 2.39721 1.07743 2.69022L1.64602 4.81212C1.72449 5.10504 2.02543 5.27899 2.31868 5.20048L4.91809 4.50401L8.50793 17.9015C8.23183 17.8801 7.95124 17.9055 7.67589 17.9793C7.0383 18.1501 6.50533 18.5591 6.17528 19.1307C5.84523 19.7025 5.75758 20.3684 5.92844 21.0061C6.0993 21.6437 6.50823 22.1766 7.07992 22.5067C7.46074 22.7265 7.88336 22.8388 8.31161 22.8388C8.52625 22.8388 8.74239 22.8106 8.95525 22.7535C10.2715 22.4008 11.0555 21.043 10.7028 19.7266C10.629 19.4513 10.5106 19.1956 10.3541 18.9672L23.5924 15.42C23.8854 15.3416 24.0593 15.0404 23.9807 14.7474ZM2.56487 3.99729L2.28062 2.93636L4.3495 2.38202L4.63375 3.44294L2.56487 3.99729ZM14.3354 6.01737L16.4533 13.9216L14.8619 14.3481L12.7439 6.44384L14.3354 6.01737ZM20.0872 12.9479L17.5143 13.6372L15.3964 5.73303L17.9692 5.04363L20.0872 12.9479ZM11.683 6.72809L13.8009 14.6322L11.228 15.3216L9.11013 7.41744L11.683 6.72809ZM8.67091 21.6925C8.31663 21.7875 7.94669 21.7387 7.62906 21.5553C7.31144 21.372 7.08428 21.0759 6.98936 20.7216C6.89444 20.3674 6.94319 19.9974 7.12656 19.6798C7.30994 19.3621 7.606 19.135 7.96024 19.0401C8.07855 19.0084 8.19855 18.9927 8.31789 18.9927C8.55574 18.9927 8.79058 19.0551 9.00208 19.1772C9.31966 19.3606 9.54687 19.6567 9.64179 20.0109C9.83768 20.7423 9.40216 21.4966 8.67091 21.6925ZM9.67474 18.0121L9.39049 16.9512L22.4934 13.4403L22.7776 14.5012L9.67474 18.0121Z" fill="#231F20"/>
<path d="M8.31579 20.9148C8.6191 20.9148 8.86498 20.6689 8.86498 20.3656C8.86498 20.0623 8.6191 19.8164 8.31579 19.8164C8.01248 19.8164 7.7666 20.0623 7.7666 20.3656C7.7666 20.6689 8.01248 20.9148 8.31579 20.9148Z" fill="#231F20"/>
<path d="M4.66815 11.5234H0.549189C0.24586 11.5234 0 11.7693 0 12.0726C0 12.376 0.24586 12.6218 0.549189 12.6218H4.66815C4.97148 12.6218 5.21734 12.376 5.21734 12.0726C5.21734 11.7693 4.97148 11.5234 4.66815 11.5234Z" fill="#231F20"/>
<path d="M4.6684 13.7227H1.64782C1.34449 13.7227 1.09863 13.9685 1.09863 14.2718C1.09863 14.5752 1.34449 14.821 1.64782 14.821H4.6684C4.97173 14.821 5.21759 14.5752 5.21759 14.2718C5.21764 13.9685 4.97173 13.7227 4.6684 13.7227Z" fill="#231F20"/>
<path d="M4.66789 15.918H2.69079C2.38746 15.918 2.1416 16.1638 2.1416 16.4672C2.1416 16.7705 2.38746 17.0163 2.69079 17.0163H4.66789C4.97122 17.0163 5.21708 16.7705 5.21708 16.4672C5.21708 16.1638 4.97122 15.918 4.66789 15.918Z" fill="#231F20"/>
</g>
<defs>
<clipPath id="clip0_208_14212">
<rect width="24" height="24" fill="white"/>
</clipPath>
</defs>
</svg>
