<svg width="24" height="24" viewBox="0 0 24 24" xmlns="http://www.w3.org/2000/svg">
<g clip-path="url(#clip0_1_10318)">
<path d="M9 15C6.33 15 1 16.34 1 19V21H17V19C17 16.34 11.67 15 9 15ZM3 19C3.22 18.28 6.31 17 9 17C11.7 17 14.8 18.29 15 19H3Z"/>
<path d="M4.74 9H5C5 11.21 6.79 13 9 13C11.21 13 13 11.21 13 9H13.26C13.53 9 13.75 8.78 13.75 8.51V8.49C13.75 8.22 13.53 8 13.26 8H13C13 6.52 12.19 5.25 11 4.55V5.5C11 5.78 10.78 6 10.5 6C10.22 6 10 5.78 10 5.5V4.14C9.68 4.06 9.35 4 9 4C8.65 4 8.32 4.06 8 4.14V5.5C8 5.78 7.78 6 7.5 6C7.22 6 7 5.78 7 5.5V4.55C5.81 5.25 5 6.52 5 8H4.74C4.47 8 4.25 8.22 4.25 8.49V8.52C4.25 8.78 4.47 9 4.74 9ZM11 9C11 10.1 10.1 11 9 11C7.9 11 7 10.1 7 9H11Z"/>
<path d="M21.9801 6.23L22.9101 5.4L22.1601 4.1L20.9701 4.49C20.8301 4.38 20.6701 4.29 20.5001 4.22L20.2501 3H18.7501L18.5001 4.22C18.3301 4.29 18.1701 4.38 18.0201 4.49L16.8401 4.1L16.0901 5.4L17.0201 6.23C17.0001 6.4 17.0001 6.58 17.0201 6.75L16.0901 7.6L16.8401 8.9L18.0401 8.52C18.1701 8.62 18.3201 8.7 18.4701 8.77L18.7501 10H20.2501L20.5201 8.78C20.6801 8.71 20.8201 8.63 20.9601 8.53L22.1501 8.91L22.9001 7.61L21.9701 6.76C22.0001 6.57 21.9901 6.4 21.9801 6.23ZM19.5001 7.75C18.8101 7.75 18.2501 7.19 18.2501 6.5C18.2501 5.81 18.8101 5.25 19.5001 5.25C20.1901 5.25 20.7501 5.81 20.7501 6.5C20.7501 7.19 20.1901 7.75 19.5001 7.75Z" />
<path d="M19.4001 10.79L18.5501 11.07C18.4501 10.99 18.3401 10.93 18.2201 10.88L18.0401 10H16.9701L16.7901 10.87C16.6701 10.92 16.5501 10.99 16.4501 11.06L15.6101 10.78L15.0701 11.71L15.7301 12.3C15.7201 12.43 15.7201 12.55 15.7301 12.67L15.0701 13.28L15.6101 14.21L16.4701 13.94C16.5701 14.01 16.6701 14.07 16.7801 14.12L16.9601 15H18.0301L18.2201 14.13C18.3301 14.08 18.4401 14.02 18.5401 13.95L19.3901 14.22L19.9301 13.29L19.2701 12.68C19.2801 12.55 19.2801 12.43 19.2701 12.31L19.9301 11.72L19.4001 10.79ZM17.5001 13.39C17.0101 13.39 16.6101 12.99 16.6101 12.5C16.6101 12.01 17.0101 11.61 17.5001 11.61C17.9901 11.61 18.3901 12.01 18.3901 12.5C18.3901 12.99 17.9901 13.39 17.5001 13.39Z"/>
</g>
<defs>
<clipPath id="clip0_1_10318">
<rect width="24" height="24"/>
</clipPath>
</defs>
</svg>
