<svg width="24" height="24" viewBox="0 0 24 24" fill="none" xmlns="http://www.w3.org/2000/svg">
<g clip-path="url(#clip0_1_4346)">
<path d="M19.28 4.93001L17.16 2.81001C16.38 2.03001 15.11 2.03001 14.33 2.81001L11.5 5.64001L13.62 7.76001L15.74 5.64001L19.28 9.18001C20.45 8.00001 20.45 6.10001 19.28 4.93001Z" fill="#1F2328"/>
<path d="M5.48999 13.77C6.07999 14.36 7.02999 14.36 7.60999 13.77L10.08 11.3L7.95999 9.17001L5.48999 11.64C4.89999 12.23 4.89999 13.18 5.48999 13.77Z" fill="#1F2328"/>
<path d="M15.04 7.75999L14.33 8.46999L13.62 9.17999L10.44 5.99999C9.84997 5.39999 8.89997 5.39999 8.31997 5.98999C7.72997 6.57999 7.72997 7.52999 8.31997 8.10999L11.5 11.29L10.79 12L4.42997 18.36C3.64997 19.14 3.64997 20.41 4.42997 21.19C5.20997 21.97 6.47997 21.97 7.25997 21.19L16.45 12C16.84 12.39 17.47 12.39 17.86 12C18.25 11.61 18.25 10.98 17.86 10.59L15.04 7.75999Z" fill="#1F2328"/>
</g>
<defs>
<clipPath id="clip0_1_4346">
<rect width="24" height="24" fill="white"/>
</clipPath>
</defs>
</svg>
