<svg width="24" height="24" viewBox="0 0 24 24" fill="none" xmlns="http://www.w3.org/2000/svg">
<path d="M5.70039 19.5008L3.90039 11.1008V10.8008H21.0004L18.9004 19.2008L5.70039 19.5008Z" fill="white"/>
<path fill-rule="evenodd" clip-rule="evenodd" d="M10.4772 3.70356C10.7357 3.75941 10.8224 3.98033 10.6707 4.19699L7.98902 8.02796C7.83735 8.24463 7.50484 8.37499 7.24633 8.31914C6.98782 8.26329 6.90121 8.04238 7.05288 7.82571L9.73455 3.99474C9.88622 3.77808 10.2187 3.64771 10.4772 3.70356Z" fill="#1F2328"/>
<path fill-rule="evenodd" clip-rule="evenodd" d="M3.77381 10.7139C4.03141 10.654 4.2888 10.8143 4.34871 11.0719L6.26419 19.3085C6.3241 19.5661 6.16384 19.8235 5.90624 19.8834C5.64864 19.9433 5.39125 19.783 5.33134 19.5254L3.41586 11.2888C3.35595 11.0312 3.51621 10.7738 3.77381 10.7139Z" fill="#1F2328"/>
<path fill-rule="evenodd" clip-rule="evenodd" d="M20.8384 10.9075C21.097 10.9629 21.2617 11.2175 21.2063 11.4761L19.4824 19.5211C19.427 19.7797 19.1724 19.9444 18.9138 19.889C18.6552 19.8336 18.4905 19.579 18.5459 19.3204L20.2698 11.2754C20.3252 11.0168 20.5798 10.8521 20.8384 10.9075Z" fill="#1F2328"/>
<path fill-rule="evenodd" clip-rule="evenodd" d="M5.31836 19.4203C5.31836 19.1558 5.53276 18.9414 5.79723 18.9414L19.0141 18.9414C19.2785 18.9414 19.4929 19.1558 19.4929 19.4203C19.4929 19.6848 19.2785 19.8991 19.0141 19.8991L5.79723 19.8991C5.53276 19.8991 5.31836 19.6848 5.31836 19.4203Z" fill="#1F2328"/>
<path fill-rule="evenodd" clip-rule="evenodd" d="M7.52086 17.5977C7.25639 17.5977 7.04199 17.3833 7.04199 17.1188V13.0963C7.04199 12.8318 7.25639 12.6174 7.52086 12.6174C7.78534 12.6174 7.99973 12.8318 7.99973 13.0963V17.1188C7.99973 17.3833 7.78534 17.5977 7.52086 17.5977Z" fill="#1F2328"/>
<path fill-rule="evenodd" clip-rule="evenodd" d="M9.81969 17.5977C9.55522 17.5977 9.34082 17.3833 9.34082 17.1188V13.0963C9.34082 12.8318 9.55522 12.6174 9.81969 12.6174C10.0842 12.6174 10.2986 12.8318 10.2986 13.0963V17.1188C10.2986 17.3833 10.0842 17.5977 9.81969 17.5977Z" fill="#1F2328"/>
<path fill-rule="evenodd" clip-rule="evenodd" d="M12.1185 17.5977C11.854 17.5977 11.6396 17.3833 11.6396 17.1188V13.0963C11.6396 12.8318 11.854 12.6174 12.1185 12.6174C12.383 12.6174 12.5974 12.8318 12.5974 13.0963V17.1188C12.5974 17.3833 12.383 17.5977 12.1185 17.5977Z" fill="#1F2328"/>
<path fill-rule="evenodd" clip-rule="evenodd" d="M14.4173 17.5977C14.1529 17.5977 13.9385 17.3833 13.9385 17.1188V13.0963C13.9385 12.8318 14.1529 12.6174 14.4173 12.6174C14.6818 12.6174 14.8962 12.8318 14.8962 13.0963V17.1188C14.8962 17.3833 14.6818 17.5977 14.4173 17.5977Z" fill="#1F2328"/>
<path fill-rule="evenodd" clip-rule="evenodd" d="M16.7152 17.5977C16.4507 17.5977 16.2363 17.3833 16.2363 17.1188V13.0963C16.2363 12.8318 16.4507 12.6174 16.7152 12.6174C16.9797 12.6174 17.1941 12.8318 17.1941 13.0963V17.1188C17.1941 17.3833 16.9797 17.5977 16.7152 17.5977Z" fill="#1F2328"/>
<path fill-rule="evenodd" clip-rule="evenodd" d="M13.7595 3.70269C14.018 3.64684 14.3505 3.7772 14.5022 3.99387L17.1838 7.82484C17.3355 8.0415 17.2489 8.26242 16.9904 8.31827C16.7319 8.37412 16.3994 8.24376 16.2477 8.02709L13.566 4.19612C13.4143 3.97946 13.501 3.75854 13.7595 3.70269Z" fill="#1F2328"/>
<path d="M1.2002 9.64958C1.2002 8.80326 1.88627 8.11719 2.73258 8.11719H21.5043C22.3506 8.11719 23.0367 8.80326 23.0367 9.64958V9.84112C23.0367 10.6874 22.3506 11.3735 21.5043 11.3735H2.73258C1.88627 11.3735 1.2002 10.6874 1.2002 9.84112V9.64958Z" fill="#1976D2"/>
<path fill-rule="evenodd" clip-rule="evenodd" d="M21.5043 9.07493H2.73258C2.41522 9.07493 2.15794 9.33221 2.15794 9.64958V9.84112C2.15794 10.1585 2.41522 10.4158 2.73258 10.4158H21.5043C21.8217 10.4158 22.079 10.1585 22.079 9.84112V9.64958C22.079 9.33221 21.8217 9.07493 21.5043 9.07493ZM2.73258 8.11719C1.88627 8.11719 1.2002 8.80326 1.2002 9.64958V9.84112C1.2002 10.6874 1.88627 11.3735 2.73258 11.3735H21.5043C22.3506 11.3735 23.0367 10.6874 23.0367 9.84112V9.64958C23.0367 8.80326 22.3506 8.11719 21.5043 8.11719H2.73258Z" fill="#1F2328"/>
</svg>
