<svg width="24" height="24" fill="none" xmlns="http://www.w3.org/2000/svg"><path d="m5.7 19.5-1.8-8.4v-.3H21l-2.1 8.4-13.2.3Z" fill="#fff"/><path fill-rule="evenodd" clip-rule="evenodd" d="M10.477 3.704c.259.055.345.276.194.493L7.989 8.028a.78.78 0 0 1-.743.291c-.258-.056-.345-.277-.193-.493l2.682-3.831a.78.78 0 0 1 .742-.291ZM3.774 10.714c.257-.06.515.1.575.358l1.915 8.236a.479.479 0 1 1-.933.217L3.416 11.29a.479.479 0 0 1 .358-.575ZM20.838 10.908c.259.055.424.31.368.568l-1.724 8.045a.479.479 0 0 1-.936-.2l1.724-8.046a.479.479 0 0 1 .568-.367Z" fill="#1F2328"/><path fill-rule="evenodd" clip-rule="evenodd" d="M5.318 19.42c0-.264.215-.479.48-.479h13.216a.479.479 0 0 1 0 .958H5.797a.479.479 0 0 1-.479-.479ZM7.52 17.598a.479.479 0 0 1-.478-.48v-4.022a.479.479 0 1 1 .958 0v4.023a.479.479 0 0 1-.48.479ZM9.82 17.598a.479.479 0 0 1-.48-.48v-4.022a.479.479 0 1 1 .959 0v4.023a.479.479 0 0 1-.48.479ZM12.118 17.598a.479.479 0 0 1-.478-.48v-4.022a.479.479 0 1 1 .957 0v4.023a.479.479 0 0 1-.479.479ZM14.417 17.598a.479.479 0 0 1-.479-.48v-4.022a.479.479 0 1 1 .958 0v4.023a.479.479 0 0 1-.479.479ZM16.715 17.598a.479.479 0 0 1-.479-.48v-4.022a.479.479 0 1 1 .958 0v4.023a.479.479 0 0 1-.479.479ZM13.76 3.703a.78.78 0 0 1 .742.29l2.682 3.832c.151.216.065.437-.194.493a.78.78 0 0 1-.742-.29l-2.682-3.832c-.152-.217-.065-.437.193-.493Z" fill="#1F2328"/><path d="M1.2 9.65c0-.847.686-1.533 1.533-1.533h18.771c.847 0 1.533.686 1.533 1.533v.191c0 .846-.686 1.533-1.533 1.533H2.733A1.532 1.532 0 0 1 1.2 9.84V9.65Z" fill="#1976D2"/><path fill-rule="evenodd" clip-rule="evenodd" d="M21.504 9.075H2.733a.575.575 0 0 0-.575.575v.191c0 .318.257.575.575.575h18.771a.575.575 0 0 0 .575-.575V9.65a.575.575 0 0 0-.575-.575ZM2.733 8.117c-.847 0-1.533.686-1.533 1.533v.191c0 .846.686 1.533 1.533 1.533h18.771c.847 0 1.533-.687 1.533-1.533V9.65c0-.847-.686-1.533-1.533-1.533H2.733Z" fill="#1F2328"/></svg>
