<svg width="11" height="10" viewBox="0 0 11 10" xmlns="http://www.w3.org/2000/svg">
<path d="M5.5 0C2.74 0 0.5 2.24 0.5 5C0.5 7.76 2.74 10 5.5 10C8.26 10 10.5 7.76 10.5 5C10.5 2.24 8.26 0 5.5 0ZM6.205 8.045V9H4.87V8.035C4.015 7.855 3.29 7.305 3.235 6.335H4.215C4.265 6.86 4.625 7.27 5.54 7.27C6.52 7.27 6.74 6.78 6.74 6.475C6.74 6.06 6.52 5.67 5.405 5.405C4.165 5.105 3.315 4.595 3.315 3.57C3.315 2.71 4.01 2.15 4.87 1.965V1H6.205V1.975C7.135 2.2 7.6 2.905 7.63 3.67H6.65C6.625 3.115 6.33 2.735 5.54 2.735C4.79 2.735 4.34 3.075 4.34 3.555C4.34 3.975 4.665 4.25 5.675 4.51C6.685 4.77 7.765 5.205 7.765 6.465C7.76 7.38 7.075 7.88 6.205 8.045Z" />
</svg>
