<svg  viewBox="0 0 20 19" xmlns="http://www.w3.org/2000/svg">
<path d="M17.0463 2.5925L19.1412 3.00365C19.2537 3.02575 19.3463 3.10675 19.3787 3.21598C19.3952 3.26904 19.3966 3.32548 19.383 3.37929C19.3693 3.4331 19.3411 3.48228 19.3013 3.52159L17.585 5.20793C17.3794 5.40872 17.1013 5.52164 16.8113 5.52213H15.3875L11.8125 9.03351C11.8807 9.28637 11.8932 9.55059 11.8493 9.80858C11.8053 10.0666 11.7059 10.3124 11.5576 10.5297C11.4093 10.747 11.2155 10.9308 10.9892 11.0688C10.7629 11.2068 10.5092 11.2958 10.2451 11.33C9.98099 11.3642 9.71248 11.3428 9.45747 11.2671C9.20246 11.1914 8.96681 11.0632 8.7662 10.8911C8.5656 10.719 8.40465 10.5069 8.29409 10.2689C8.18353 10.0309 8.12588 9.77251 8.125 9.51094C8.12494 9.22844 8.19109 8.94972 8.31834 8.69635C8.44559 8.44297 8.63052 8.22176 8.85881 8.04982C9.0871 7.87788 9.35263 7.75983 9.63484 7.70481C9.91705 7.64979 10.2084 7.65928 10.4862 7.73255L14.0625 4.21993V2.82446C14.0625 2.53972 14.1775 2.26603 14.3825 2.06475L16.1 0.378401C16.14 0.339284 16.1901 0.311552 16.2449 0.298154C16.2997 0.284755 16.3572 0.28619 16.4112 0.302306C16.5225 0.334217 16.605 0.425039 16.6275 0.535499L17.0463 2.5925Z"/>
<path d="M2.49987 9.5106C2.50115 10.5636 2.73242 11.6041 3.17808 12.5619C3.62373 13.5196 4.27341 14.3724 5.08328 15.0627C5.89315 15.753 6.84437 16.2647 7.87279 16.5634C8.90121 16.862 9.98289 16.9406 11.0449 16.7939C12.1069 16.6472 13.1245 16.2785 14.029 15.7128C14.9336 15.1472 15.704 14.3976 16.2885 13.5147C16.8729 12.6317 17.2576 11.636 17.4168 10.5947C17.576 9.55334 17.5058 8.4906 17.2111 7.47814C17.1697 7.35985 17.1533 7.23454 17.1628 7.10982C17.1724 6.9851 17.2076 6.86359 17.2665 6.75268C17.3254 6.64178 17.4066 6.5438 17.5053 6.46471C17.604 6.38562 17.718 6.32707 17.8405 6.29264C17.9629 6.2582 18.0913 6.24859 18.2176 6.2644C18.344 6.28021 18.4657 6.3211 18.5755 6.38459C18.6852 6.44807 18.7807 6.53282 18.856 6.63368C18.9313 6.73454 18.9849 6.8494 19.0136 6.97126C19.5843 8.93194 19.4759 11.0232 18.7054 12.9168C17.935 14.8105 16.5461 16.3995 14.7566 17.4345C12.9672 18.4695 10.8784 18.8919 8.81806 18.6355C6.75769 18.3791 4.84229 17.4585 3.37237 16.0179C1.90405 14.575 0.965339 12.6941 0.703625 10.6707C0.44191 8.64722 0.872011 6.59571 1.9264 4.83825C2.98079 3.08079 4.59975 1.7169 6.52911 0.960715C8.45848 0.204532 10.589 0.0988767 12.5861 0.660338C12.8239 0.728592 13.0245 0.886495 13.1441 1.09954C13.2637 1.31258 13.2926 1.56345 13.2243 1.79731C13.1561 2.03116 12.9964 2.229 12.7801 2.34758C12.5638 2.46616 12.3084 2.49585 12.0699 2.43014C10.9531 2.11527 9.77706 2.05948 8.63456 2.26716C7.49206 2.47484 6.41432 2.94031 5.48636 3.62687C4.5584 4.31343 3.80559 5.2023 3.28732 6.22336C2.76904 7.24442 2.49947 8.36975 2.49987 9.5106Z"/>
<path d="M6.24962 9.51094C6.2497 10.1818 6.43631 10.8399 6.78933 11.4142C7.14235 11.9886 7.64838 12.4574 8.25284 12.7701C8.85729 13.0829 9.53724 13.2276 10.2193 13.1888C10.9014 13.15 11.5598 12.929 12.1234 12.5498C12.6869 12.1696 13.1338 11.6454 13.4158 11.0339C13.6978 10.4223 13.8042 9.74674 13.7234 9.08014C13.7015 8.91838 13.724 8.75383 13.7884 8.60342C13.8529 8.45302 13.957 8.3222 14.0901 8.22443C14.2231 8.12667 14.3803 8.06549 14.5455 8.0472C14.7106 8.02891 14.8777 8.05417 15.0296 8.12037C15.1815 8.18572 15.313 8.28944 15.4107 8.42097C15.5084 8.55249 15.5689 8.7071 15.5859 8.86904C15.7217 10.0081 15.493 11.1605 14.9315 12.1661C14.37 13.1718 13.5036 13.9809 12.4526 14.4812C11.4015 14.9814 10.2179 15.148 9.06599 14.9577C7.91412 14.7675 6.85114 14.2299 6.02458 13.4196C5.19801 12.6092 4.64887 11.5663 4.45338 10.4356C4.25788 9.30496 4.42572 8.14256 4.9336 7.10979C5.44149 6.07702 6.26422 5.2251 7.28761 4.67228C8.31101 4.11946 9.48429 3.89316 10.6446 4.02478C10.7689 4.0361 10.8896 4.07166 10.9996 4.12937C11.1097 4.18708 11.2069 4.26579 11.2856 4.36087C11.3643 4.45595 11.4229 4.5655 11.4579 4.6831C11.4929 4.80069 11.5036 4.92396 11.4895 5.04569C11.4753 5.16741 11.4366 5.28514 11.3755 5.39197C11.3144 5.4988 11.2322 5.59258 11.1337 5.66782C11.0353 5.74305 10.9225 5.79823 10.802 5.83012C10.6815 5.862 10.5558 5.86995 10.4321 5.8535C9.90669 5.7936 9.3743 5.84352 8.86992 5.99998C8.36553 6.15644 7.90057 6.4159 7.50556 6.76132C7.11055 7.10674 6.79443 7.53031 6.57798 8.0042C6.36152 8.47808 6.24962 8.99157 6.24962 9.51094Z"/>
</svg>
