<svg width="24" height="24" viewBox="0 0 24 24" xmlns="http://www.w3.org/2000/svg">
    <path
        d="M4.70633 20.9124C5.64871 20.9124 6.41266 20.1352 6.41266 19.1764C6.41266 18.2176 5.64871 17.4403 4.70633 17.4403C3.76395 17.4403 3 18.2176 3 19.1764C3 20.1352 3.76395 20.9124 4.70633 20.9124Z" />
    <path
        d="M11.1931 14.9794V19.6473C11.1931 20.8335 10.3563 21.3377 9.33442 20.766L6.69312 17.3271L10.5854 13.4726C10.9743 13.8744 11.1925 14.4155 11.1931 14.9794Z" />
    <path
        d="M4.48424 12.8219H9.07777C9.64734 12.8225 10.1925 13.0571 10.5896 13.4726L6.69358 17.3271L3.38471 14.7121C2.82372 13.6723 3.31833 12.8219 4.48424 12.8219Z" />
    <path
        d="M17.5854 4.75899C17.5854 5.71831 18.3498 6.496 19.2927 6.496C20.2356 6.496 21 5.71831 21 4.75899C21 3.79966 20.2356 3.02197 19.2927 3.02197C18.8398 3.02172 18.4054 3.20465 18.0852 3.53045C17.765 3.85626 17.5852 4.29822 17.5854 4.75899Z" />
    <path
        d="M14.6647 3.23597C13.6428 2.66521 12.8069 3.16843 12.8069 4.35466V9.02348C12.8076 9.60689 13.0415 10.1649 13.4548 10.5693L17.2798 6.64721L14.6647 3.23597Z" />
    <path
        d="M20.6156 9.28984C20.0733 8.86027 19.6666 8.5381 19.3955 8.32332C18.9253 7.95086 18.22 7.39215 17.2796 6.64722L13.4546 10.5693C13.848 10.9611 14.3766 11.1807 14.9272 11.181H19.517C20.6829 11.181 21.1775 10.3305 20.6156 9.28984Z" />
    <path
        d="M19.2527 20.9124C20.1951 20.9124 20.959 20.1352 20.959 19.1764C20.959 18.2176 20.1951 17.4403 19.2527 17.4403C18.3103 17.4403 17.5464 18.2176 17.5464 19.1764C17.5464 20.1352 18.3103 20.9124 19.2527 20.9124Z" />
    <path
        d="M15.0809 12.8219H19.6688C20.8347 12.8219 21.3293 13.6723 20.7683 14.7121L17.3763 17.4137L13.5513 13.4916C13.9497 13.0649 14.5025 12.8229 15.0809 12.8219Z" />
    <path
        d="M17.3764 17.4137L14.8192 20.766C13.7973 21.3367 12.9614 20.8335 12.9614 19.6473V14.9794C12.9619 14.4246 13.1733 13.8915 13.5514 13.4916L17.3764 17.4137Z" />
    <path
        d="M3.19434 4.75898C3.19434 5.71831 3.9587 6.496 4.9016 6.496C5.8445 6.496 6.60886 5.71831 6.60886 4.75898C6.60886 3.79966 5.8445 3.02197 4.9016 3.02197C4.44881 3.02197 4.01456 3.20498 3.69438 3.53073C3.37421 3.85648 3.19434 4.2983 3.19434 4.75898Z" />
    <path
        d="M11.193 9.0235V4.35469C11.193 3.16751 10.3562 2.66429 9.33423 3.236L6.6228 6.74427L10.5142 10.5969C10.9458 10.1914 11.1918 9.62124 11.193 9.0235Z" />
    <path
        d="M6.62496 6.74426L3.38527 9.28985C2.82336 10.3305 3.31796 11.181 4.48481 11.181H9.0774C9.6141 11.1801 10.1303 10.9713 10.521 10.5969L6.62496 6.74426Z" />
</svg>