<svg width="28" height="28" viewBox="0 0 28 28" xmlns="http://www.w3.org/2000/svg">
    <path d="M20.2781 7.26623L20.1834 7.53312H20.4666H22.8888C24.0117 7.53312 24.911 8.43246 24.911 9.55534V21.7776C24.911 22.9004 24.0117 23.7998 22.8888 23.7998H5.11102C3.98814 23.7998 3.08879 22.9004 3.08879 21.7776L3.09991 9.55552V9.55534C3.09991 8.43115 3.98945 7.53312 5.11102 7.53312H7.53324H7.81642L7.72172 7.26623C7.60581 6.93956 7.53324 6.58448 7.53324 6.222C7.53324 4.48802 8.93258 3.08867 10.6666 3.08867C11.7622 3.08867 12.7131 3.65176 13.2786 4.48946L13.2784 4.48955L13.2832 4.49604L13.8388 5.25159L13.9987 5.46911L14.1602 5.25273L14.7157 4.50829L14.716 4.50846L14.7219 4.49961C15.2873 3.6515 16.2378 3.08867 17.3332 3.08867C19.0672 3.08867 20.4666 4.48802 20.4666 6.222C20.4666 6.58448 20.394 6.93956 20.2781 7.26623ZM22.8888 21.9776H23.0888V21.7776V19.5553V19.3553H22.8888H5.11102H4.91102V19.5553V21.7776V21.9776H5.11102H22.8888ZM22.8888 16.422H23.0888V16.222V9.55534V9.35534H22.8888H17.2444H16.8491L17.0832 9.67378L19.2749 12.6557L17.7992 13.7215L15.2722 10.2814L15.2721 10.2813L14.161 8.77019L13.9999 8.55106L13.8388 8.77019L12.7277 10.2813L12.7276 10.2814L10.2006 13.7215L8.72494 12.6557L10.9166 9.67378L11.1507 9.35534H10.7555H5.11102H4.91102V9.55534V16.222V16.422H5.11102H22.8888ZM18.6444 6.222C18.6444 5.50044 18.0548 4.91089 17.3332 4.91089C16.6117 4.91089 16.0221 5.50044 16.0221 6.222C16.0221 6.94357 16.6117 7.53312 17.3332 7.53312C18.0548 7.53312 18.6444 6.94357 18.6444 6.222ZM11.9777 6.222C11.9777 5.50044 11.3881 4.91089 10.6666 4.91089C9.945 4.91089 9.35546 5.50044 9.35546 6.222C9.35546 6.94357 9.945 7.53312 10.6666 7.53312C11.3881 7.53312 11.9777 6.94357 11.9777 6.222Z" stroke="#DEE1E4" stroke-width="0.4"/>
</svg>
