<svg width="35" height="34" viewBox="0 0 35 34" xmlns="http://www.w3.org/2000/svg">
<path d="M24.9166 18.6668C26.1666 18.6668 27.2666 17.9835 27.8333 16.9502L33.8 6.1335C34.4166 5.0335 33.6166 3.66683 32.35 3.66683H7.68329L6.11663 0.333496H0.666626V3.66683H3.99996L9.99996 16.3168L7.74996 20.3835C6.53329 22.6168 8.13329 25.3335 10.6666 25.3335H30.6666V22.0002H10.6666L12.5 18.6668H24.9166ZM9.26663 7.00016H29.5166L24.9166 15.3335H13.2166L9.26663 7.00016ZM10.6666 27.0002C8.83329 27.0002 7.34996 28.5002 7.34996 30.3335C7.34996 32.1668 8.83329 33.6668 10.6666 33.6668C12.5 33.6668 14 32.1668 14 30.3335C14 28.5002 12.5 27.0002 10.6666 27.0002ZM27.3333 27.0002C25.5 27.0002 24.0166 28.5002 24.0166 30.3335C24.0166 32.1668 25.5 33.6668 27.3333 33.6668C29.1666 33.6668 30.6666 32.1668 30.6666 30.3335C30.6666 28.5002 29.1666 27.0002 27.3333 27.0002Z"/>
</svg>
