<svg width="24" height="24" viewBox="0 0 24 24" fill="none" xmlns="http://www.w3.org/2000/svg">
<g clip-path="url(#clip0_1_10729)">
<path fill-rule="evenodd" clip-rule="evenodd" d="M12 3C9.79 3 8 4.79 8 7C8 7.13643 8.01723 7.26712 8.03429 7.39642L8.03429 7.39643L8.0343 7.39655L8.03432 7.39667L8.03433 7.39679C8.03976 7.43795 8.04517 7.47898 8.05 7.52L11.48 10.95C11.5211 10.9548 11.5623 10.9603 11.6036 10.9657C11.7329 10.9828 11.8636 11 12 11C14.21 11 16 9.21 16 7C16 4.79 14.21 3 12 3ZM12 5C13.1 5 14 5.9 14 7C14 7.99 13.27 8.82 12.33 8.97L10.02 6.66C10.19 5.72 11.01 5 12 5ZM19.53 19L13.69 13.16C16.44 13.5 20 14.86 20 17V19H19.53ZM10.01 15.13L11.88 17H6C6.08 16.76 6.88 15.99 8.91 15.43L10.01 15.13ZM0 5.12L1.41 3.71L19.29 21.59L17.88 23L13.88 19H4V17C4 15.3 6.19 14.11 8.39 13.51L5.88 11L1 6.12L0 5.12Z" fill="#1F2328"/>
</g>
<defs>
<clipPath id="clip0_1_10729">
<rect width="24" height="24" fill="white"/>
</clipPath>
</defs>
</svg>
