<svg width="20" height="18" viewBox="0 0 20 18" xmlns="http://www.w3.org/2000/svg">
<path fill-rule="evenodd" clip-rule="evenodd" d="M12.6317 4.71053C12.6317 7.03684 10.7475 8.92105 8.42114 8.92105C6.09482 8.92105 4.21061 7.03684 4.21061 4.71053C4.21061 2.38421 6.09482 0.5 8.42114 0.5C10.7475 0.5 12.6317 2.38421 12.6317 4.71053ZM10.5263 4.71045C10.5263 3.55256 9.57896 2.60519 8.42107 2.60519C7.26317 2.60519 6.3158 3.55256 6.3158 4.71045C6.3158 5.86835 7.26317 6.81572 8.42107 6.81572C9.57896 6.81572 10.5263 5.86835 10.5263 4.71045ZM2.10526 15.2369C2.31579 14.5738 4.81053 13.4685 7.32632 13.1948L9.47369 11.0896C9.06316 11.0475 8.7579 11.0264 8.42105 11.0264C5.61053 11.0264 0 12.4369 0 15.2369V17.3422H9.47369L7.36842 15.2369H2.10526ZM13.1262 14.8893L18.5262 9.44717L19.9999 10.9314L13.1262 17.8682L9.47359 14.184L10.9473 12.6998L13.1262 14.8893Z" />
</svg>
