<svg width="27" height="28" viewBox="0 0 27 28" xmlns="http://www.w3.org/2000/svg">
<g clip-path="url(#clip0_6978_8638)">
<path d="M17.7452 12.8889V13.0889H17.9452H24.4119V23.8H2.58965V10.8667H9.05632H9.25632V10.6667V4.2H17.7452V12.8889ZM11.2785 6.02222H11.0785V6.22222V21.7778V21.9778H11.2785H15.723H15.923V21.7778V6.22222V6.02222H15.723H11.2785ZM4.61187 12.6889H4.41187V12.8889V21.7778V21.9778H4.61187H9.05632H9.25632V21.7778V12.8889V12.6889H9.05632H4.61187ZM22.3896 21.9778H22.5896V21.7778V15.1111V14.9111H22.3896H17.9452H17.7452V15.1111V21.7778V21.9778H17.9452H22.3896Z" stroke="#DEE1E4" stroke-width="0.4"/>
</g>
<defs>
<clipPath id="clip0_6978_8638">
<rect width="26.6667" height="26.6667" transform="translate(0.166992 0.666016)"/>
</clipPath>
</defs>
</svg>
