<svg width="24" height="24" viewBox="0 0 24 24"  xmlns="http://www.w3.org/2000/svg">
<g clip-path="url(#clip0_1_6452)">
<path d="M4.5 12C5.88071 12 7 10.8807 7 9.5C7 8.11929 5.88071 7 4.5 7C3.11929 7 2 8.11929 2 9.5C2 10.8807 3.11929 12 4.5 12Z" />
<path d="M9 8C10.3807 8 11.5 6.88071 11.5 5.5C11.5 4.11929 10.3807 3 9 3C7.61929 3 6.5 4.11929 6.5 5.5C6.5 6.88071 7.61929 8 9 8Z" />
<path d="M15 8C16.3807 8 17.5 6.88071 17.5 5.5C17.5 4.11929 16.3807 3 15 3C13.6193 3 12.5 4.11929 12.5 5.5C12.5 6.88071 13.6193 8 15 8Z" />
<path d="M19.5 12C20.8807 12 22 10.8807 22 9.5C22 8.11929 20.8807 7 19.5 7C18.1193 7 17 8.11929 17 9.5C17 10.8807 18.1193 12 19.5 12Z" />
<path d="M17.3399 14.86C16.4699 13.84 15.7399 12.97 14.8599 11.95C14.3999 11.41 13.8099 10.87 13.1099 10.63C12.9999 10.59 12.8899 10.56 12.7799 10.54C12.5299 10.5 12.2599 10.5 11.9999 10.5C11.7399 10.5 11.4699 10.5 11.2099 10.55C11.0999 10.57 10.9899 10.6 10.8799 10.64C10.1799 10.88 9.5999 11.42 9.1299 11.96C8.2599 12.98 7.5299 13.85 6.6499 14.87C5.3399 16.18 3.7299 17.63 4.0299 19.66C4.3199 20.68 5.0499 21.69 6.3599 21.98C7.0899 22.13 9.4199 21.54 11.8999 21.54H12.0799C14.5599 21.54 16.8899 22.12 17.6199 21.98C18.9299 21.69 19.6599 20.67 19.9499 19.66C20.2599 17.62 18.6499 16.17 17.3399 14.86Z" />
</g>
<defs>
<clipPath id="clip0_1_6452">
<rect width="24" height="24"/>
</clipPath>
</defs>
</svg>
