<svg width="25" height="18" viewBox="0 0 25 18" xmlns="http://www.w3.org/2000/svg">
  <path d="M22.5 0H2.5C1.4 0 0.5 0.9 0.5 2V16C0.5 17.1 1.4 18 2.5 18H22.5C23.6 18 24.49 17.1 24.49 16L24.5 2C24.5 0.9 23.6 0 22.5 0ZM22.5 16H2.5V2H22.5V16ZM21.5 3H14.5V8H21.5V3ZM20.5 5L18 6.75L15.5 5V4L18 5.75L20.5 4V5ZM9.5 9C11.15 9 12.5 7.65 12.5 6C12.5 4.35 11.15 3 9.5 3C7.85 3 6.5 4.35 6.5 6C6.5 7.65 7.85 9 9.5 9ZM9.5 5C10.05 5 10.5 5.45 10.5 6C10.5 6.55 10.05 7 9.5 7C8.95 7 8.5 6.55 8.5 6C8.5 5.45 8.95 5 9.5 5ZM15.5 13.59C15.5 11.09 11.53 10.01 9.5 10.01C7.47 10.01 3.5 11.09 3.5 13.59V15H15.5V13.59ZM5.98 13C6.72 12.5 8.2 12 9.5 12C10.8 12 12.27 12.49 13.02 13H5.98Z" />
</svg>
