<svg width="20" height="20" viewBox="0 0 20 20" xmlns="http://www.w3.org/2000/svg">
  <path fill-rule="evenodd" clip-rule="evenodd" d="M8.29015 8.80601C10.5803 8.80601 12.4352 6.94754 12.4352 4.65301C12.4352 2.35847 10.5803 0.5 8.29015 0.5C6 0.5 4.14508 2.35847 4.14508 4.65301C4.14508 6.94754 6 8.80601 8.29015 8.80601ZM8.29015 2.5765C9.43005 2.5765 10.3627 3.51093 10.3627 4.65301C10.3627 5.79508 9.43005 6.72951 8.29015 6.72951C7.15026 6.72951 6.21762 5.79508 6.21762 4.65301C6.21762 3.51093 7.15026 2.5765 8.29015 2.5765ZM7.21244 13.0213C4.73575 13.2913 2.27979 14.3814 2.07254 15.0355H7.25389L9.32642 17.112H0V15.0355C0 12.2738 5.52332 10.8825 8.29016 10.8825C8.62176 10.8825 8.92228 10.9033 9.32642 10.9448L7.21244 13.0213Z" />
  <path fill-rule="evenodd" clip-rule="evenodd" d="M9.32642 14.153C9.32642 17.1015 11.7204 19.5 14.6632 19.5C17.6061 19.5 20 17.1015 20 14.153C20 11.2045 17.6061 8.80601 14.6632 8.80601C11.7204 8.80601 9.32642 11.2045 9.32642 14.153ZM13.9009 10.3336H15.0445V14.3439L18.094 16.1542L17.5223 17.0938L13.9009 14.9168V10.3336Z" />
</svg>

