<svg width="21" height="20" viewBox="0 0 21 20" xmlns="http://www.w3.org/2000/svg">
<path d="M10.3584 0C4.8384 0 0.358398 4.48 0.358398 10C0.358398 15.52 4.8384 20 10.3584 20C15.8784 20 20.3584 15.52 20.3584 10C20.3584 4.48 15.8784 0 10.3584 0ZM10.3584 18C5.9484 18 2.3584 14.41 2.3584 10C2.3584 5.59 5.9484 2 10.3584 2C14.7684 2 18.3584 5.59 18.3584 10C18.3584 14.41 14.7684 18 10.3584 18ZM10.6684 9.14C8.8984 8.69 8.3284 8.2 8.3284 7.47C8.3284 6.63 9.1184 6.04 10.4284 6.04C11.8084 6.04 12.3284 6.7 12.3684 7.68H14.0784C14.0284 6.34 13.2084 5.11 11.5884 4.71V3H9.2584V4.69C7.7484 5.01 6.5384 5.99 6.5384 7.5C6.5384 9.29 8.0284 10.19 10.1984 10.71C12.1484 11.17 12.5384 11.86 12.5384 12.58C12.5384 13.11 12.1484 13.97 10.4384 13.97C8.8384 13.97 8.2084 13.25 8.1184 12.33H6.3984C6.4984 14.03 7.7584 14.99 9.2584 15.3V17H11.5984V15.33C13.1184 15.04 14.3184 14.17 14.3284 12.56C14.3184 10.36 12.4284 9.6 10.6684 9.14Z"/>
</svg>