<svg width="20" height="20" viewBox="0 0 20 20" fill="none" xmlns="http://www.w3.org/2000/svg">
  <path fill-rule="evenodd" clip-rule="evenodd" d="M8.29015 8.80602C10.5803 8.80602 12.4352 6.94755 12.4352 4.65301C12.4352 2.35847 10.5803 0.5 8.29015 0.5C6 0.5 4.14508 2.35847 4.14508 4.65301C4.14508 6.94755 6 8.80602 8.29015 8.80602ZM8.29015 2.57651C9.43005 2.57651 10.3627 3.51093 10.3627 4.65301C10.3627 5.79509 9.43005 6.72952 8.29015 6.72952C7.15026 6.72952 6.21762 5.79509 6.21762 4.65301C6.21762 3.51093 7.15026 2.57651 8.29015 2.57651ZM7.21243 13.0213C4.73575 13.2913 2.27979 14.3814 2.07254 15.0355H7.25388L9.32642 17.112H0V15.0355C0 12.2738 5.52331 10.8825 8.29015 10.8825C8.62176 10.8825 8.92228 10.9033 9.32642 10.9448L7.21243 13.0213Z" fill="#FF913D"/>
  <path fill-rule="evenodd" clip-rule="evenodd" d="M9.32643 14.153C9.32643 17.1015 11.7204 19.5 14.6632 19.5C17.6061 19.5 20 17.1015 20 14.153C20 11.2045 17.6061 8.806 14.6632 8.806C11.7204 8.806 9.32643 11.2045 9.32643 14.153ZM14.5596 10.3634C14.1304 10.3634 13.7824 10.7121 13.7824 11.1421V14.776C13.7824 15.2061 14.1304 15.5547 14.5596 15.5547C14.9889 15.5547 15.3368 15.2061 15.3368 14.776V11.1421C15.3368 10.7121 14.9889 10.3634 14.5596 10.3634ZM14.5596 18.1503C14.9889 18.1503 15.3368 17.8017 15.3368 17.3716C15.3368 16.9416 14.9889 16.593 14.5596 16.593C14.1304 16.593 13.7824 16.9416 13.7824 17.3716C13.7824 17.8017 14.1304 18.1503 14.5596 18.1503Z" fill="#FF913D"/>
</svg>
