<svg xmlns="http://www.w3.org/2000/svg" width="22" height="22" viewBox="0 0 22 22"><path d="M2.95 5v.65h.65v1h-.65v.65h-1v-.65H1.3v-1h.65V5h1Zm3.1-3.2v.65h.65v1h-.65v.65h-1v-.65H4.4v-1h.65V1.8h1Zm5.4-1.8v.65h.65v1h-.65v.65h-1v-.65H9.8v-1h.65V0h1Zm5.5 1.8v.65h.65v1h-.65v.65h-1v-.65h-.65v-1h.65V1.8h1Zm3.1 3.2v.65h.65v1h-.65v.65h-1v-.65h-.65v-1h.65V5h1ZM8 7.327v.188c-1.908.676-3.556 1.983-4.74 3.695H2.023a1 1 0 0 0-1 1v2.044l-.01.005A2 2 0 0 0 0 16v1a1 1 0 0 0 1 1h.245l.001.002c.183.226.463.37.776.37h17.955a.997.997 0 0 0 .778-.372H21c.5 0 1-.448 1-1v-1c0-.746-.409-1.397-1.024-1.746V12.21a1 1 0 0 0-1-1h-1.25C17.545 9.502 15.902 8.198 14 7.52v-.193C14 5.766 12.657 4.5 11 4.5S8 5.766 8 7.327ZM7.5 16.5H2.364c-.477 0-.864-.112-.864-.25V16c0-.276.773-.5 1.727-.5h15.545c.955 0 1.728.224 1.728.5v.25c0 .138-.432.25-.864.25H7.5ZM18.2 14h-3.7V9.713a7.542 7.542 0 0 1 2.038 1.494l.002.002a6.998 6.998 0 0 1 1.646 2.741l.014.05ZM7.5 11.21V14H3.8a7.028 7.028 0 0 1 1.662-2.792l-.002.002a7.522 7.522 0 0 1 1.997-1.477l.043-.02v1.497Zm5-2.174v1.08c0 .407-.103.785-.278 1.093-.272.479-.718.791-1.222.791s-.95-.312-1.222-.79a2.191 2.191 0 0 1-.278-1.096v.001-2.23c0-.279.048-.544.135-.782C9.87 6.453 10.393 6 11 6s1.13.453 1.366 1.106c.086.237.134.5.134.779v1.151Z"/></svg>
