<svg width="48" height="48" viewBox="0 0 48 48" fill="none" xmlns="http://www.w3.org/2000/svg">
<rect width="48" height="48" rx="24" fill="#F1F3F3"/>
<g clip-path="url(#clip0_9927_88685)">
<path d="M22.6668 18.6654V19.812L25.3335 22.4787V18.6654H22.6668ZM20.0002 9.33203H28.0002V11.9987H20.0002V9.33203ZM24.0002 15.9987C29.1602 15.9987 33.3335 20.172 33.3335 25.332C33.3335 26.8254 32.9735 28.2387 32.3468 29.492L34.3068 31.452C35.3735 29.6654 36.0002 27.572 36.0002 25.332C36.0002 22.5054 35.0135 19.9054 33.3735 17.852L35.2668 15.9587C34.6935 15.2787 34.0668 14.6387 33.3868 14.0787L31.4935 15.972C29.4268 14.3187 26.8268 13.332 24.0002 13.332C21.7602 13.332 19.6668 13.9587 17.8802 15.0254L19.8402 16.9854C21.0935 16.3587 22.5068 15.9987 24.0002 15.9987ZM12.2135 13.1454L10.3335 15.0254L14.0002 18.692C12.7468 20.5987 12.0002 22.8787 12.0002 25.332C12.0002 31.9587 17.3602 37.332 24.0002 37.332C26.4535 37.332 28.7335 36.5987 30.6402 35.332L33.9735 38.6654L35.8535 36.7854L12.2135 13.1454ZM24.0002 34.6654C18.8402 34.6654 14.6668 30.492 14.6668 25.332C14.6668 23.612 15.1335 22.012 15.9468 20.6387L28.7068 33.3987C27.3202 34.1987 25.7202 34.6654 24.0002 34.6654Z" fill="#7E8B97"/>
</g>
<defs>
<clipPath id="clip0_9927_88685">
<rect width="32" height="32" fill="white" transform="translate(8 8)"/>
</clipPath>
</defs>
</svg>