<svg width="24" height="24" viewBox="0 0 24 24"  xmlns="http://www.w3.org/2000/svg">
<g clip-path="url(#clip0_1_4058)">
<path d="M21.67 18.17L16.37 12.87H15.38L12.84 15.41V16.4L18.14 21.7C18.53 22.09 19.16 22.09 19.55 21.7L21.67 19.58C22.06 19.2 22.06 18.56 21.67 18.17Z" />
<path d="M17.34 10.19L18.75 8.78L20.87 10.9C22.04 9.73 22.04 7.83 20.87 6.66L17.33 3.12L15.92 4.53V1.71L15.22 1L11.68 4.54L12.39 5.25H15.22L13.81 6.66L14.87 7.72L11.98 10.61L7.85 6.48V5.06L4.83 2.04L2 4.87L5.03 7.9H6.44L10.57 12.03L9.72 12.88H7.6L2.3 18.18C1.91 18.57 1.91 19.2 2.3 19.59L4.42 21.71C4.81 22.1 5.44 22.1 5.83 21.71L11.13 16.41V14.29L16.28 9.14L17.34 10.19Z" />
</g>
<defs>
<clipPath id="clip0_1_4058">
<rect width="24" height="24" />
</clipPath>
</defs>
</svg>
