<svg width="24" height="24" viewBox="0 0 24 24"  xmlns="http://www.w3.org/2000/svg">
<g clip-path="url(#clip0_1_2455)">
<path d="M2.53001 19.65L3.87001 20.21V11.18L1.44001 17.04C1.03001 18.06 1.52001 19.23 2.53001 19.65ZM22.03 15.95L17.07 3.98C16.76 3.23 16.03 2.77 15.26 2.75C15 2.75 14.73 2.79 14.47 2.9L7.10001 5.95C6.35001 6.26 5.89001 6.98 5.87001 7.75C5.86001 8.02 5.91001 8.29 6.02001 8.55L10.98 20.52C11.29 21.28 12.03 21.74 12.81 21.75C13.07 21.75 13.33 21.7 13.58 21.6L20.94 18.55C21.96 18.13 22.45 16.96 22.03 15.95ZM7.88001 8.75C7.33001 8.75 6.88001 8.3 6.88001 7.75C6.88001 7.2 7.33001 6.75 7.88001 6.75C8.43001 6.75 8.88001 7.2 8.88001 7.75C8.88001 8.3 8.43001 8.75 7.88001 8.75ZM5.88001 19.75C5.88001 20.85 6.78001 21.75 7.88001 21.75H9.33001L5.88001 13.41V19.75Z"/>
</g>
<defs>
<clipPath id="clip0_1_2455">
<rect width="24" height="24"/>
</clipPath>
</defs>
</svg>
