
<svg width="24" height="24" fill="none" xmlns="http://www.w3.org/2000/svg"><g clip-path="url(#a)"><path d="m8.438 7.028 2.402 8.964 9.92-2.658-2.403-8.964-9.92 2.658Z" fill="#fff"/><path d="M8.316 22.29a1.922 1.922 0 1 0 0-3.845 1.922 1.922 0 0 0 0 3.845Z" fill="#ED6700"/><path d="m14.474 15.02 2.652-.711-2.402-8.965-2.652.71 2.402 8.965Z" fill="#007FD8"/><path d="M22.882 12.768 8.719 16.562l.568 2.122L23.45 14.89l-.568-2.121ZM2.177 4.67l3.13-.838-.569-2.122-3.13.839.569 2.122Z" fill="#FF7D00"/><path d="m23.98 14.747-.568-2.122a.549.549 0 0 0-.672-.388l-1.592.427-2.26-8.435a.549.549 0 0 0-.673-.388l-9.92 2.658a.55.55 0 0 0-.388.672l2.26 8.435-1.061.284L5.268 1.567a.55.55 0 0 0-.672-.388l-3.13.839a.55.55 0 0 0-.389.672l.569 2.122a.55.55 0 0 0 .673.388l2.6-.696 3.589 13.397a2.472 2.472 0 0 0-.832.078c-.638.171-1.17.58-1.5 1.152a2.455 2.455 0 0 0-.248 1.875c.171.638.58 1.17 1.152 1.5a2.458 2.458 0 0 0 1.875.247 2.474 2.474 0 0 0 1.4-3.786l13.237-3.547a.549.549 0 0 0 .389-.673ZM2.566 3.997l-.284-1.06 2.068-.555.285 1.06-2.07.555Zm11.77 2.02 2.118 7.905-1.591.426-2.118-7.904 1.591-.427Zm5.752 6.93-2.573.69-2.118-7.904 2.573-.69 2.118 7.905Zm-8.404-6.219 2.118 7.904-2.573.69L9.11 7.417l2.573-.689ZM8.671 21.692a1.364 1.364 0 0 1-1.042-.137 1.364 1.364 0 0 1-.64-.833 1.364 1.364 0 0 1 .138-1.042 1.364 1.364 0 0 1 1.19-.687c.239 0 .474.062.685.184a1.375 1.375 0 0 1-.331 2.515Zm1.004-3.68-.285-1.06 13.103-3.512.285 1.061-13.103 3.511Z" fill="#231F20"/><path d="M8.316 20.915a.55.55 0 1 0 0-1.099.55.55 0 0 0 0 1.099ZM4.668 11.523H.55a.55.55 0 0 0 0 1.099h4.12a.55.55 0 1 0 0-1.099ZM4.668 13.723h-3.02a.55.55 0 1 0 0 1.098h3.02a.55.55 0 1 0 0-1.098ZM4.668 15.918H2.69a.55.55 0 1 0 0 1.098h1.977a.55.55 0 1 0 0-1.098Z" fill="#231F20"/></g><defs><clipPath id="a"><path fill="#fff" d="M0 0h24v24H0z"/></clipPath></defs></svg>
