<svg width="27" height="28" viewBox="0 0 27 28" xmlns="http://www.w3.org/2000/svg">
<g clip-path="url(#clip0_6978_7500)">
<path d="M20.0724 15.8744C23.0133 15.8744 25.4207 13.4265 25.4207 10.4429C25.4207 7.45918 23.0133 5.01133 20.0724 5.01133C17.1316 5.01133 14.7242 7.45918 14.7242 10.4429C14.7242 13.4265 17.1316 15.8744 20.0724 15.8744ZM20.0724 6.17196C22.3798 6.17196 24.275 8.09501 24.275 10.4429C24.275 12.7907 22.3798 14.7138 20.0724 14.7138C17.7651 14.7138 15.8698 12.7907 15.8698 10.4429C15.8698 8.09501 17.7651 6.17196 20.0724 6.17196Z" stroke="#1976D2" stroke-width="0.2"/>
<path d="M20.0724 12.1214H18.9377C18.7842 12.1214 18.6526 12.1736 18.5592 12.2684C18.466 12.3631 18.4148 12.4965 18.4148 12.6517C18.4148 12.8069 18.466 12.9403 18.5592 13.035C18.6526 13.1298 18.7842 13.182 18.9377 13.182H19.5023V13.4202C19.5023 13.5754 19.5534 13.7088 19.6467 13.8035C19.74 13.8983 19.8717 13.9505 20.0251 13.9505C20.1786 13.9505 20.3102 13.8983 20.4036 13.8035C20.4968 13.7088 20.5479 13.5754 20.5479 13.4202V13.073C21.2118 12.863 21.6827 12.2299 21.6827 11.547C21.6827 10.6545 20.9509 9.91191 20.0251 9.91191C19.7225 9.91191 19.4605 9.64685 19.4605 9.3375V9.1934C19.4605 8.88405 19.7225 8.61899 20.0251 8.61899H21.1599C21.3133 8.61899 21.445 8.56679 21.5383 8.47198C21.6316 8.37724 21.6827 8.24389 21.6827 8.08867C21.6827 7.93345 21.6316 7.8001 21.5383 7.70536C21.445 7.61055 21.3133 7.55835 21.1599 7.55835H20.5479V7.32016C20.5479 7.16494 20.4968 7.0316 20.4036 6.93686C20.3102 6.84204 20.1786 6.78984 20.0251 6.78984C19.8717 6.78984 19.74 6.84204 19.6467 6.93686C19.5534 7.0316 19.5023 7.16494 19.5023 7.32016V7.66816C18.8842 7.87911 18.4148 8.51176 18.4148 9.1934V9.3375C18.4148 10.2299 19.1467 10.9725 20.0724 10.9725C20.375 10.9725 20.6371 11.2376 20.6371 11.547C20.6371 11.8563 20.375 12.1214 20.0724 12.1214Z" stroke="#1976D2" stroke-width="0.1"/>
<path d="M4.85328 21.2989V21.0052L11.9558 23.3631L11.9712 23.3682H11.9873H24.5642C25.8488 23.3682 26.9337 22.3147 26.9337 20.9627C26.9337 19.6107 25.8488 18.5572 24.5642 18.5572H18.3285C18.3271 17.8047 17.9319 17.0996 17.2849 16.745L11.6598 13.4316L11.6593 13.4313C11.3155 13.2317 10.9674 13.1296 10.6162 13.1296H4.8503C4.79809 12.2563 4.06761 11.5445 3.193 11.5445H1.72728C0.819505 11.5445 0.0669922 12.3113 0.0669922 13.2296V21.2989C0.0669922 22.2172 0.819505 22.984 1.72728 22.984H3.193C4.10077 22.984 4.85328 22.2172 4.85328 21.2989ZM4.85328 19.7858V14.3382H10.6162C10.7902 14.3382 10.9585 14.3827 11.0802 14.4651L11.0801 14.4653L11.0852 14.4683L16.6644 17.7825L16.6653 17.783C16.9646 17.9568 17.1355 18.2596 17.1355 18.6091C17.1355 18.9556 16.9669 19.2621 16.6609 19.4858C16.3533 19.6626 15.97 19.6999 15.6797 19.5322L14.6883 18.9087L14.6883 18.9087L14.6871 18.908C14.3951 18.73 14.0522 18.855 13.887 19.1347C13.7134 19.4286 13.834 19.775 14.1102 19.9434L14.1102 19.9434L14.1138 19.9454L15.154 20.5218L15.154 20.5219L15.1572 20.5235C15.452 20.6733 15.7984 20.7745 16.1481 20.7745C16.543 20.7745 16.9423 20.6742 17.293 20.4202C17.5682 20.2336 17.8052 20 17.9583 19.7178H24.5169C25.1717 19.7178 25.7407 20.2503 25.7407 20.9627H25.7405L25.741 20.9692C25.7843 21.6296 25.218 22.2076 24.5642 22.2076H12.1453L4.85328 19.7858ZM3.70765 21.2989C3.70765 21.5814 3.46726 21.8233 3.193 21.8233H1.72728C1.45301 21.8233 1.21262 21.5814 1.21262 21.2989V13.2296C1.21262 12.9471 1.45301 12.7052 1.72728 12.7052H3.193C3.46726 12.7052 3.70765 12.9471 3.70765 13.2296V21.2989Z" stroke="#1976D2" stroke-width="0.2"/>
</g>
<defs>
<clipPath id="clip0_6978_7500">
<rect width="26.6667" height="26.6667" transform="translate(0.166992 0.666016)"/>
</clipPath>
</defs>
</svg>
