<svg width="24" height="24" viewBox="0 0 24 24" fill="none" xmlns="http://www.w3.org/2000/svg">
<path d="M24 12C24 18.6274 18.6274 24 12 24C5.37258 24 0 18.6274 0 12C0 5.37258 5.37258 0 12 0C18.6274 0 24 5.37258 24 12Z" fill="#ED6700"/>
<path fill-rule="evenodd" clip-rule="evenodd" d="M12 23.0769C18.1176 23.0769 23.0769 18.1176 23.0769 12C23.0769 5.88238 18.1176 0.923077 12 0.923077C5.88238 0.923077 0.923077 5.88238 0.923077 12C0.923077 18.1176 5.88238 23.0769 12 23.0769ZM12 24C18.6274 24 24 18.6274 24 12C24 5.37258 18.6274 0 12 0C5.37258 0 0 5.37258 0 12C0 18.6274 5.37258 24 12 24Z" fill="#1F2328"/>
<path d="M21.6922 11.9999C21.6922 17.3528 17.3528 21.6922 11.9999 21.6922C6.64701 21.6922 2.30762 17.3528 2.30762 11.9999C2.30762 6.64701 6.64701 2.30762 11.9999 2.30762C17.3528 2.30762 21.6922 6.64701 21.6922 11.9999Z" fill="white"/>
<path fill-rule="evenodd" clip-rule="evenodd" d="M11.9999 20.7692C16.843 20.7692 20.7692 16.843 20.7692 11.9999C20.7692 7.15681 16.843 3.23069 11.9999 3.23069C7.15681 3.23069 3.23069 7.15681 3.23069 11.9999C3.23069 16.843 7.15681 20.7692 11.9999 20.7692ZM11.9999 21.6922C17.3528 21.6922 21.6922 17.3528 21.6922 11.9999C21.6922 6.64701 17.3528 2.30762 11.9999 2.30762C6.64701 2.30762 2.30762 6.64701 2.30762 11.9999C2.30762 17.3528 6.64701 21.6922 11.9999 21.6922Z" fill="#1F2328"/>
<path d="M12.0665 16.732C11.4979 16.732 10.9422 16.62 10.3994 16.396C9.86527 16.172 9.41727 15.8963 9.05542 15.5689L9.84373 14.8452C10.1625 15.1037 10.52 15.3104 10.9163 15.4655C11.3127 15.612 11.6874 15.6852 12.0407 15.6852C12.3939 15.6852 12.717 15.6163 13.0099 15.4784C13.3114 15.3406 13.5527 15.151 13.7336 14.9098C13.9145 14.66 14.0093 14.3713 14.0179 14.044C14.0265 13.6304 13.88 13.2987 13.5785 13.0489C13.277 12.799 12.8117 12.5966 12.1828 12.4415C11.5711 12.2864 11.037 12.0969 10.5803 11.8729C10.1237 11.6403 9.7748 11.3473 9.53357 10.9941C9.29234 10.6409 9.19327 10.2015 9.23634 9.67596C9.29665 8.97811 9.58527 8.44396 10.1022 8.0735C10.6277 7.69442 11.317 7.50488 12.1699 7.50488C12.5834 7.50488 13.0185 7.55658 13.4751 7.65996C13.9403 7.75473 14.3754 7.91842 14.7803 8.15104L14.0954 8.97811C13.7939 8.84888 13.4837 8.7455 13.165 8.66796C12.8462 8.58181 12.5231 8.53442 12.1957 8.52581C11.877 8.52581 11.5711 8.56888 11.2782 8.65504C10.9939 8.73257 10.7613 8.86611 10.5803 9.05565C10.3994 9.23658 10.3047 9.48211 10.296 9.79227C10.296 10.111 10.3822 10.3695 10.5545 10.5677C10.7268 10.7572 10.9594 10.9123 11.2523 11.0329C11.5453 11.1535 11.8727 11.2655 12.2345 11.3689C12.8462 11.5326 13.3588 11.7135 13.7723 11.9117C14.1945 12.1098 14.5133 12.3726 14.7287 12.7C14.944 13.0273 15.0517 13.4753 15.0517 14.044C15.0517 14.5523 14.9139 15.0089 14.6382 15.4138C14.3711 15.8187 14.0093 16.1418 13.5527 16.383C13.1047 16.6157 12.6093 16.732 12.0665 16.732Z" fill="#1976D2"/>
<path fill-rule="evenodd" clip-rule="evenodd" d="M11.6538 5.53809C11.8449 5.53809 11.9999 5.69306 11.9999 5.88424L11.9999 18.3458C11.9999 18.537 11.8449 18.6919 11.6538 18.6919C11.4626 18.6919 11.3076 18.537 11.3076 18.3458L11.3076 5.88424C11.3076 5.69306 11.4626 5.53809 11.6538 5.53809ZM13.2692 5.53809C13.4603 5.53809 13.6153 5.69306 13.6153 5.88424L13.6153 18.3458C13.6153 18.537 13.4603 18.6919 13.2692 18.6919C13.078 18.6919 12.923 18.537 12.923 18.3458L12.923 5.88424C12.923 5.69306 13.078 5.53809 13.2692 5.53809Z" fill="#1976D2"/>
</svg>
