<svg width="24" height="24" viewBox="0 0 24 24" xmlns="http://www.w3.org/2000/svg">
    <g clip-path="url(#clip0_3_2)">
        <path
            d="M2.69403 18.5235C2.1611 18.5345 1.64326 18.7046 1.20554 19.0125C0.767816 19.3205 0.429727 19.7525 0.233733 20.2543C0.0377381 20.7561 -0.00742353 21.3054 0.103919 21.8331C0.215263 22.3609 0.478146 22.8435 0.859554 23.2205C1.24096 23.5974 1.72389 23.8519 2.24769 23.9519C2.77149 24.052 3.3128 23.9931 3.80365 23.7827C4.29449 23.5723 4.71299 23.2197 5.00657 22.7693C5.30016 22.3189 5.45575 21.7907 5.45379 21.2511C5.45248 20.8877 5.37971 20.5282 5.23974 20.1935C5.09976 19.8588 4.89538 19.5557 4.63851 19.3018C4.38163 19.0479 4.07741 18.8484 3.74357 18.7147C3.40972 18.5811 3.05294 18.5161 2.69403 18.5235ZM2.69403 22.2876C2.49091 22.2876 2.29236 22.2266 2.12352 22.1123C1.95467 21.998 1.82312 21.8355 1.74551 21.6455C1.6679 21.4555 1.64773 21.2464 1.68754 21.0448C1.72736 20.8431 1.82538 20.658 1.96918 20.5128C2.11299 20.3676 2.29612 20.2688 2.4954 20.229C2.69467 20.1892 2.90113 20.2102 3.08863 20.2892C3.27614 20.3683 3.43626 20.5019 3.54872 20.6731C3.66119 20.8443 3.72095 21.0455 3.72043 21.2511C3.71702 21.5254 3.60771 21.7874 3.41588 21.9811C3.22405 22.1748 2.96495 22.2848 2.69403 22.2876ZM8.46492 12.2491H3.51096C3.11718 12.2187 2.72261 12.297 2.36938 12.4758C2.01614 12.6546 1.71749 12.9272 1.50529 13.2644C1.31384 13.616 1.22072 14.0138 1.23594 14.415C1.25117 14.8162 1.37416 15.2057 1.59169 15.5414L1.6781 15.6845L5.30193 18.5447L8.20308 22.2876L8.34447 22.3777C8.73566 22.5989 9.1743 22.7199 9.62224 22.7302C9.96384 22.733 10.2997 22.6413 10.5937 22.4652C10.9271 22.2501 11.1966 21.9473 11.3733 21.5892C11.5499 21.2311 11.6271 20.8311 11.5965 20.432V15.4088C11.5937 14.5699 11.2626 13.7662 10.6756 13.1739C10.0886 12.5817 9.29365 12.2491 8.46492 12.2491ZM9.92597 20.432C9.92597 20.774 9.82909 20.9622 9.74007 21.0072C9.65104 21.0523 9.52274 21.0072 9.29494 20.9516L6.54565 17.4181L2.98728 14.5791C2.89041 14.3459 2.90088 14.1921 2.98728 14.1259C3.07369 14.0596 3.2177 13.9377 3.55547 13.9377H8.46492C8.66718 13.9316 8.8685 13.9678 9.05635 14.044C9.24419 14.1201 9.41454 14.2346 9.55678 14.3803C9.69049 14.5126 9.79685 14.6705 9.86968 14.8448C9.9425 15.0191 9.98033 15.2063 9.98096 15.3956L9.92597 20.432ZM20.2685 5.25642C20.6137 5.40409 20.9858 5.47635 21.3604 5.46848C22.0515 5.43073 22.7021 5.1262 23.1781 4.61757C23.6541 4.10894 23.9195 3.43491 23.9195 2.73422C23.9195 2.03353 23.6541 1.3595 23.1781 0.850866C22.7021 0.342233 22.0515 0.0377024 21.3604 -4.42476e-05C21.0068 -0.00131317 20.6565 0.0693653 20.3304 0.207794C20.0043 0.346223 19.709 0.549579 19.4621 0.805787C19.1528 1.12195 18.9249 1.51017 18.7985 1.93635C18.6721 2.36253 18.651 2.81361 18.7371 3.24997C18.8232 3.68632 19.0139 4.09459 19.2923 4.4389C19.5708 4.78321 19.9285 5.05301 20.334 5.22461L20.2685 5.25642ZM20.2685 2.72759C20.2911 2.47415 20.3993 2.23634 20.5749 2.0543C20.6704 1.95701 20.7843 1.88031 20.9099 1.82883C21.0354 1.77735 21.17 1.75215 21.3054 1.75476C21.5081 1.75172 21.7068 1.81157 21.8748 1.92625C22.0428 2.04093 22.1722 2.20494 22.2454 2.39624C22.308 2.53862 22.3382 2.69343 22.3337 2.84921C22.3292 3.00499 22.2902 3.15775 22.2194 3.29618C22.1487 3.43461 22.0482 3.55517 21.9252 3.64892C21.8022 3.74267 21.66 3.80722 21.509 3.83778C21.3581 3.86835 21.2023 3.86414 21.0531 3.82549C20.904 3.78683 20.7654 3.7147 20.6475 3.61446C20.5296 3.51421 20.4356 3.3884 20.3722 3.24636C20.3089 3.10431 20.2779 2.94966 20.2816 2.79386L20.2685 2.72759ZM15.5136 11.4327H20.4754C20.8699 11.4634 21.2651 11.3849 21.6189 11.2056C21.9727 11.0262 22.2716 10.7529 22.4837 10.4148C22.6746 10.0635 22.7675 9.66617 22.7522 9.26548C22.737 8.8648 22.6143 8.47587 22.3973 8.14045L22.3109 7.98405L18.6661 5.10267L15.7964 1.39161L15.655 1.30413C15.322 1.0885 14.9387 0.965636 14.5437 0.94795C14.1488 0.930264 13.7563 1.01838 13.4058 1.2034C13.0748 1.42363 12.8076 1.7289 12.6314 2.08798C12.4552 2.44707 12.3764 2.84709 12.403 3.24714V8.26238C12.4057 9.10051 12.7351 9.90368 13.3195 10.4973C13.9039 11.091 14.6962 11.4271 15.5241 11.4327H15.5136ZM14.0735 3.24714C14.0735 2.89459 14.1704 2.71699 14.2594 2.67192C14.3016 2.65585 14.3481 2.65585 14.3903 2.67192C14.4991 2.67808 14.6057 2.70507 14.7045 2.75145L17.4538 6.22925L21.0541 9.10002C21.1431 9.33329 21.1431 9.48703 21.0541 9.5533C20.965 9.61957 20.8263 9.7309 20.4885 9.7309H15.5345C15.1488 9.73091 14.7788 9.57653 14.5051 9.30143C14.2314 9.02633 14.0762 8.65283 14.0735 8.26238V3.24714ZM21.3054 18.5235C20.7696 18.5214 20.2452 18.6805 19.7988 18.9805C19.3524 19.2806 19.0041 19.7082 18.7981 20.2089C18.5921 20.7097 18.5376 21.2612 18.6416 21.7933C18.7457 22.3255 19.0035 22.8143 19.3824 23.1979C19.7613 23.5815 20.2442 23.8425 20.7699 23.9478C21.2955 24.0532 21.8402 23.998 22.3349 23.7895C22.8295 23.5809 23.2518 23.2283 23.5483 22.7764C23.8447 22.3245 24.0018 21.7936 23.9997 21.2511C23.997 20.5286 23.7122 19.8364 23.2075 19.3255C22.7028 18.8145 22.0191 18.5263 21.3054 18.5235ZM21.3054 22.2876C21.1019 22.2897 20.9023 22.2304 20.7321 22.1174C20.5619 22.0044 20.4287 21.8427 20.3495 21.6529C20.2702 21.4631 20.2486 21.2537 20.2872 21.0513C20.3258 20.849 20.423 20.6629 20.5664 20.5166C20.7098 20.3703 20.8929 20.2705 21.0924 20.2298C21.292 20.1892 21.499 20.2095 21.6871 20.2882C21.8752 20.367 22.036 20.5006 22.1489 20.672C22.2618 20.8435 22.3219 21.045 22.3213 21.2511C22.3207 21.5244 22.2137 21.7864 22.0235 21.9804C21.8334 22.1744 21.5754 22.2848 21.3054 22.2876ZM22.3213 15.6607L22.4078 15.5069C22.6202 15.1677 22.7401 14.7776 22.7552 14.3762C22.7704 13.9749 22.6803 13.5766 22.4942 13.222C22.281 12.8862 21.9819 12.6153 21.6287 12.4379C21.2756 12.2605 20.8815 12.1834 20.4885 12.2147H15.5241C14.6988 12.223 13.9097 12.5585 13.3261 13.1493C12.7426 13.7401 12.4111 14.5389 12.403 15.3744V20.4002C12.3731 20.7991 12.4509 21.1987 12.628 21.5564C12.8051 21.914 13.0748 22.2162 13.4084 22.4307C13.7016 22.6064 14.0365 22.6981 14.3772 22.6958C14.8253 22.6867 15.2643 22.5656 15.655 22.3432L15.8068 22.2558L18.6111 18.6216L22.3213 15.6607ZM14.6836 20.9304C14.4558 21.0178 14.3013 21.0178 14.2358 20.9304C14.1704 20.8429 14.0499 20.6971 14.0499 20.3552V15.4194C14.0579 15.029 14.2147 14.6568 14.4875 14.3807C14.7603 14.1045 15.1279 13.9458 15.5136 13.9377H20.4649C20.8053 13.9377 20.9886 14.0384 21.0331 14.1259C21.0776 14.2133 21.0331 14.3459 20.9781 14.5791L17.4538 17.3624L14.6836 20.9304ZM1.66763 5.25642C2.15981 5.46486 2.70234 5.51945 3.22542 5.41316C3.7485 5.30687 4.22821 5.04457 4.60282 4.66C5.01084 4.2455 5.27637 3.70915 5.36019 3.13016C5.44402 2.55118 5.34169 1.96024 5.06833 1.44465C4.79497 0.929046 4.36507 0.516114 3.84211 0.266836C3.31916 0.0175582 2.73088 -0.0548499 2.16416 0.0603058C1.59744 0.175462 1.08232 0.472076 0.694888 0.906342C0.307453 1.34061 0.0682425 1.8895 0.0125838 2.47196C-0.0430749 3.05441 0.0877695 3.63955 0.385793 4.14094C0.683816 4.64234 1.13322 5.03342 1.66763 5.25642ZM2.69403 1.70174C2.89698 1.7002 3.09573 1.76023 3.26467 1.87409C3.43361 1.98795 3.56499 2.15043 3.64188 2.34058C3.70692 2.52762 3.72106 2.72893 3.68283 2.92341C3.64459 3.11789 3.55538 3.29837 3.42455 3.44595C3.27908 3.58813 3.09571 3.68414 2.89703 3.72218C2.69834 3.76021 2.49301 3.7386 2.3063 3.66C2.11959 3.58141 1.95965 3.44926 1.84618 3.27983C1.7327 3.1104 1.67064 2.91107 1.66763 2.70638C1.6911 2.44208 1.80771 2.19516 1.99616 2.0107C2.18461 1.82625 2.43231 1.71659 2.69403 1.70174ZM10.5937 1.2034C10.2431 1.01838 9.85061 0.930264 9.4557 0.94795C9.06079 0.965636 8.67748 1.0885 8.34447 1.30413L8.20308 1.39161L5.23647 5.214L1.6781 7.98405L1.59169 8.14045C1.37928 8.47967 1.25939 8.86979 1.24422 9.27113C1.22904 9.67248 1.31912 10.0707 1.50529 10.4254C1.7176 10.7595 2.015 11.0294 2.36615 11.2066C2.71729 11.3839 3.10917 11.462 3.50049 11.4327H8.47539C9.30242 11.4244 10.0931 11.0873 10.6769 10.4943C11.2608 9.90124 11.591 9.09966 11.5965 8.26238V3.24714C11.6209 2.84739 11.5411 2.44815 11.3651 2.08946C11.1891 1.73076 10.9231 1.4252 10.5937 1.2034ZM8.46492 9.78657H3.51096C3.16272 9.78657 2.98728 9.69644 2.94539 9.60897C2.9035 9.52149 2.89041 9.38895 2.94539 9.15569L6.33618 6.47312L9.29494 2.71699C9.36458 2.68389 9.44057 2.66672 9.51751 2.66672C9.59444 2.66672 9.67043 2.68389 9.74007 2.71699C9.82909 2.71699 9.9155 2.95025 9.9155 3.2922V8.26238C9.91966 8.45903 9.88539 8.65458 9.81464 8.83777C9.7439 9.02096 9.63808 9.18819 9.50327 9.32984C9.36847 9.47149 9.20733 9.58476 9.02913 9.66314C8.85093 9.74152 8.65919 9.78347 8.46492 9.78657Z"
        />
    </g>
    <defs>
        <clipPath id="clip0_3_2">
            <rect width="24" height="24" />
        </clipPath>
    </defs>
</svg>