<svg width="24" height="24" viewBox="0 0 24 24" xmlns="http://www.w3.org/2000/svg">
<g clip-path="url(#clip0_1_10729)">
<path fill-rule="evenodd" clip-rule="evenodd" d="M14 3C11.79 3 10 4.79 10 7C10 7.13643 10.0172 7.26712 10.0343 7.39642L10.0343 7.39643L10.0343 7.39655L10.0343 7.39667L10.0343 7.39679C10.0398 7.43795 10.0452 7.47898 10.05 7.52L13.48 10.95C13.5211 10.9548 13.5623 10.9603 13.6036 10.9657C13.7329 10.9828 13.8636 11 14 11C16.21 11 18 9.21 18 7C18 4.79 16.21 3 14 3ZM14 5C15.1 5 16 5.9 16 7C16 7.99 15.27 8.82 14.33 8.97L12.02 6.66C12.19 5.72 13.01 5 14 5ZM21.53 19L15.69 13.16C18.44 13.5 22 14.86 22 17V19H21.53ZM12.01 15.13L13.88 17H8C8.08 16.76 8.88 15.99 10.91 15.43L12.01 15.13ZM2 5.12L3.41 3.71L21.29 21.59L19.88 23L15.88 19H6V17C6 15.3 8.19 14.11 10.39 13.51L7.88 11L3 6.12L2 5.12Z" />
</g>
<defs>
<clipPath id="clip0_1_10729">
<rect width="24" height="24" />
</clipPath>
</defs>
</svg>
