<svg width="42" height="28" viewBox="0 0 42 28" xmlns="http://www.w3.org/2000/svg">
<mask id="path-1-outside-1_4115_41465" maskUnits="userSpaceOnUse" x="0" y="-0.333496" width="42" height="29">
<rect y="-0.333496" width="42" height="29"/>
<path d="M39.7042 10.5385C39.8272 10.5385 39.9437 10.5468 40.078 10.5555C40.3175 10.5721 40.5532 10.4812 40.7271 10.3042C40.901 10.1281 41 9.88301 41 9.62671V4.38831C40.9988 3.40138 40.6324 2.45553 39.9802 1.75774C39.328 1.05995 38.4441 0.667355 37.5217 0.666504H4.47826C3.5559 0.66775 2.67195 1.05987 2.01982 1.75774C1.36804 2.45558 1.00119 3.4014 1 4.38831V9.62671C1.00349 9.88425 1.10598 10.1293 1.28339 10.3038C1.46157 10.4795 1.69954 10.57 1.94177 10.5538C2.05707 10.5468 2.17275 10.5385 2.29581 10.5385C3.14092 10.5439 3.95067 10.9019 4.5528 11.5358C5.15529 12.1701 5.50234 13.0308 5.52097 13.9347C5.49962 14.7181 5.24263 15.4733 4.78844 16.088C4.33425 16.7032 3.7073 17.1451 3.00002 17.3486C2.65064 17.4579 2.28457 17.4903 1.92315 17.4446C1.68363 17.4271 1.448 17.5185 1.27409 17.6959C1.0994 17.8712 1.00002 18.1163 1.00002 18.373V23.6114C1.00118 24.5983 1.36803 25.5441 2.01984 26.2419C2.67202 26.9398 3.55594 27.3319 4.47828 27.3332H37.5217C38.4441 27.3323 39.328 26.9398 39.9802 26.2419C40.6323 25.5441 40.9988 24.5983 41 23.6114V18.373C40.9988 18.1158 40.8991 17.8708 40.724 17.6951C40.5497 17.516 40.3125 17.4251 40.0718 17.4446C39.712 17.4899 39.3478 17.457 39 17.3486C38.2927 17.1451 37.6658 16.7031 37.2116 16.088C36.7574 15.4732 36.5004 14.7181 36.4791 13.9347C36.4973 13.0308 36.8448 12.1701 37.4468 11.5358C38.0493 10.9015 38.8591 10.5435 39.7042 10.5385ZM34.7399 13.9001C34.7481 15.0935 35.1207 16.2516 35.8021 17.1966C36.483 18.142 37.4345 18.8224 38.5113 19.1344C38.7563 19.2125 39.0071 19.2669 39.2609 19.2968V23.6113C39.2606 24.1048 39.0769 24.5779 38.7509 24.9268C38.4248 25.2753 37.983 25.4718 37.5218 25.4722H12.3959V24.4387C12.3959 23.9249 12.0065 23.5083 11.5263 23.5083C11.0461 23.5083 10.6568 23.9249 10.6568 24.4387V25.4722H4.47858C4.0174 25.4718 3.57524 25.2757 3.24916 24.9268C2.92347 24.5779 2.73984 24.1048 2.73946 23.6113V19.2968C2.99334 19.2669 3.2445 19.2125 3.48946 19.1344C4.56593 18.8224 5.51738 18.1416 6.19873 17.1966C6.87963 16.2512 7.25264 15.0935 7.26049 13.8997C7.23254 12.5912 6.757 11.3389 5.92355 10.3801C5.09047 9.42144 3.95733 8.82325 2.73955 8.69873V4.38834C2.73993 3.89487 2.92356 3.42175 3.24925 3.07284C3.57533 2.72393 4.0175 2.52786 4.47867 2.52745H10.6568V3.56092C10.6568 4.07474 11.0462 4.49137 11.5264 4.49137C12.0066 4.49137 12.396 4.07474 12.396 3.56092V2.52745H37.5219C37.9831 2.52786 38.4249 2.72434 38.7509 3.07284C39.077 3.42175 39.2607 3.89488 39.261 4.38834V8.69873C38.0433 8.82335 36.9101 9.42149 36.077 10.3801C35.2436 11.3388 34.7678 12.5916 34.7399 13.9001ZM12.3956 18.9362V20.0684C12.3956 20.5823 12.0062 20.9989 11.526 20.9989C11.0458 20.9989 10.6564 20.5823 10.6564 20.0684V18.9362C10.6564 18.4223 11.0458 18.0057 11.526 18.0057C12.0062 18.0057 12.3956 18.4223 12.3956 18.9362ZM12.3956 13.4336V14.5659C12.3956 15.0797 12.0062 15.4964 11.526 15.4964C11.0458 15.4964 10.6564 15.0797 10.6564 14.5659V13.4336C10.6564 12.9198 11.0458 12.5032 11.526 12.5032C12.0062 12.5032 12.3956 12.9198 12.3956 13.4336ZM12.3956 7.93108V9.06336C12.3956 9.57718 12.0062 9.99381 11.526 9.99381C11.0458 9.99381 10.6564 9.57718 10.6564 9.06336V7.93108C10.6564 7.41726 11.0458 7.00063 11.526 7.00063C12.0062 7.00063 12.3956 7.41726 12.3956 7.93108ZM28.6371 10.1758L20.2593 19.1405C19.9181 19.4928 19.3762 19.4878 19.0403 19.1289C18.7049 18.77 18.7003 18.1897 19.0298 17.8246L27.4076 8.85979C27.7484 8.50589 28.2919 8.51045 28.6277 8.86976C28.9638 9.22906 28.9678 9.81067 28.6371 10.1758ZM21.4391 12.2024C22.0769 11.5212 22.3828 10.5608 22.266 9.60462C22.1491 8.648 21.6231 7.80433 20.8429 7.32166C20.0622 6.83898 19.1165 6.77169 18.2835 7.14056C17.4508 7.50942 16.8254 8.27167 16.5917 9.20297C16.358 10.1347 16.5428 11.1295 17.0917 11.895C17.6402 12.6601 18.4904 13.1087 19.3918 13.1087C20.1597 13.1087 20.8957 12.7831 21.4391 12.2024ZM18.573 9.13609C18.9038 8.78261 19.4018 8.67668 19.8339 8.86818C20.266 9.05967 20.5474 9.51077 20.5474 10.0113C20.5474 10.5118 20.266 10.9629 19.8339 11.1549C19.4018 11.3464 18.9042 11.2404 18.5734 10.8865C18.3556 10.6552 18.2329 10.3399 18.2329 10.0113C18.2329 9.68275 18.3552 9.36788 18.573 9.13609ZM25.3796 17.9891C25.3796 18.8111 25.6848 19.5992 26.2279 20.1802C26.771 20.7612 27.5074 21.0878 28.2756 21.0878C29.0434 21.0878 29.7799 20.7613 30.323 20.1802C30.8661 19.5991 31.1712 18.8111 31.1712 17.9891C31.1712 17.1675 30.8661 16.3795 30.323 15.7983C29.7713 15.2347 29.038 14.9202 28.2756 14.9202C26.7516 14.9194 25.3796 16.5324 25.3796 17.9891ZM29.0928 18.8643C28.6351 19.332 27.9153 19.332 27.4577 18.8643C27.1269 18.5104 27.0279 17.9783 27.2069 17.5159C27.3859 17.0532 27.8078 16.7516 28.2756 16.7516C28.7434 16.7516 29.165 17.0532 29.3439 17.5159C29.5229 17.9782 29.4235 18.5103 29.0928 18.8643Z"/>
</mask>
<path d="M39.7042 10.5385C39.8272 10.5385 39.9437 10.5468 40.078 10.5555C40.3175 10.5721 40.5532 10.4812 40.7271 10.3042C40.901 10.1281 41 9.88301 41 9.62671V4.38831C40.9988 3.40138 40.6324 2.45553 39.9802 1.75774C39.328 1.05995 38.4441 0.667355 37.5217 0.666504H4.47826C3.5559 0.66775 2.67195 1.05987 2.01982 1.75774C1.36804 2.45558 1.00119 3.4014 1 4.38831V9.62671C1.00349 9.88425 1.10598 10.1293 1.28339 10.3038C1.46157 10.4795 1.69954 10.57 1.94177 10.5538C2.05707 10.5468 2.17275 10.5385 2.29581 10.5385C3.14092 10.5439 3.95067 10.9019 4.5528 11.5358C5.15529 12.1701 5.50234 13.0308 5.52097 13.9347C5.49962 14.7181 5.24263 15.4733 4.78844 16.088C4.33425 16.7032 3.7073 17.1451 3.00002 17.3486C2.65064 17.4579 2.28457 17.4903 1.92315 17.4446C1.68363 17.4271 1.448 17.5185 1.27409 17.6959C1.0994 17.8712 1.00002 18.1163 1.00002 18.373V23.6114C1.00118 24.5983 1.36803 25.5441 2.01984 26.2419C2.67202 26.9398 3.55594 27.3319 4.47828 27.3332H37.5217C38.4441 27.3323 39.328 26.9398 39.9802 26.2419C40.6323 25.5441 40.9988 24.5983 41 23.6114V18.373C40.9988 18.1158 40.8991 17.8708 40.724 17.6951C40.5497 17.516 40.3125 17.4251 40.0718 17.4446C39.712 17.4899 39.3478 17.457 39 17.3486C38.2927 17.1451 37.6658 16.7031 37.2116 16.088C36.7574 15.4732 36.5004 14.7181 36.4791 13.9347C36.4973 13.0308 36.8448 12.1701 37.4468 11.5358C38.0493 10.9015 38.8591 10.5435 39.7042 10.5385ZM34.7399 13.9001C34.7481 15.0935 35.1207 16.2516 35.8021 17.1966C36.483 18.142 37.4345 18.8224 38.5113 19.1344C38.7563 19.2125 39.0071 19.2669 39.2609 19.2968V23.6113C39.2606 24.1048 39.0769 24.5779 38.7509 24.9268C38.4248 25.2753 37.983 25.4718 37.5218 25.4722H12.3959V24.4387C12.3959 23.9249 12.0065 23.5083 11.5263 23.5083C11.0461 23.5083 10.6568 23.9249 10.6568 24.4387V25.4722H4.47858C4.0174 25.4718 3.57524 25.2757 3.24916 24.9268C2.92347 24.5779 2.73984 24.1048 2.73946 23.6113V19.2968C2.99334 19.2669 3.2445 19.2125 3.48946 19.1344C4.56593 18.8224 5.51738 18.1416 6.19873 17.1966C6.87963 16.2512 7.25264 15.0935 7.26049 13.8997C7.23254 12.5912 6.757 11.3389 5.92355 10.3801C5.09047 9.42144 3.95733 8.82325 2.73955 8.69873V4.38834C2.73993 3.89487 2.92356 3.42175 3.24925 3.07284C3.57533 2.72393 4.0175 2.52786 4.47867 2.52745H10.6568V3.56092C10.6568 4.07474 11.0462 4.49137 11.5264 4.49137C12.0066 4.49137 12.396 4.07474 12.396 3.56092V2.52745H37.5219C37.9831 2.52786 38.4249 2.72434 38.7509 3.07284C39.077 3.42175 39.2607 3.89488 39.261 4.38834V8.69873C38.0433 8.82335 36.9101 9.42149 36.077 10.3801C35.2436 11.3388 34.7678 12.5916 34.7399 13.9001ZM12.3956 18.9362V20.0684C12.3956 20.5823 12.0062 20.9989 11.526 20.9989C11.0458 20.9989 10.6564 20.5823 10.6564 20.0684V18.9362C10.6564 18.4223 11.0458 18.0057 11.526 18.0057C12.0062 18.0057 12.3956 18.4223 12.3956 18.9362ZM12.3956 13.4336V14.5659C12.3956 15.0797 12.0062 15.4964 11.526 15.4964C11.0458 15.4964 10.6564 15.0797 10.6564 14.5659V13.4336C10.6564 12.9198 11.0458 12.5032 11.526 12.5032C12.0062 12.5032 12.3956 12.9198 12.3956 13.4336ZM12.3956 7.93108V9.06336C12.3956 9.57718 12.0062 9.99381 11.526 9.99381C11.0458 9.99381 10.6564 9.57718 10.6564 9.06336V7.93108C10.6564 7.41726 11.0458 7.00063 11.526 7.00063C12.0062 7.00063 12.3956 7.41726 12.3956 7.93108ZM28.6371 10.1758L20.2593 19.1405C19.9181 19.4928 19.3762 19.4878 19.0403 19.1289C18.7049 18.77 18.7003 18.1897 19.0298 17.8246L27.4076 8.85979C27.7484 8.50589 28.2919 8.51045 28.6277 8.86976C28.9638 9.22906 28.9678 9.81067 28.6371 10.1758ZM21.4391 12.2024C22.0769 11.5212 22.3828 10.5608 22.266 9.60462C22.1491 8.648 21.6231 7.80433 20.8429 7.32166C20.0622 6.83898 19.1165 6.77169 18.2835 7.14056C17.4508 7.50942 16.8254 8.27167 16.5917 9.20297C16.358 10.1347 16.5428 11.1295 17.0917 11.895C17.6402 12.6601 18.4904 13.1087 19.3918 13.1087C20.1597 13.1087 20.8957 12.7831 21.4391 12.2024ZM18.573 9.13609C18.9038 8.78261 19.4018 8.67668 19.8339 8.86818C20.266 9.05967 20.5474 9.51077 20.5474 10.0113C20.5474 10.5118 20.266 10.9629 19.8339 11.1549C19.4018 11.3464 18.9042 11.2404 18.5734 10.8865C18.3556 10.6552 18.2329 10.3399 18.2329 10.0113C18.2329 9.68275 18.3552 9.36788 18.573 9.13609ZM25.3796 17.9891C25.3796 18.8111 25.6848 19.5992 26.2279 20.1802C26.771 20.7612 27.5074 21.0878 28.2756 21.0878C29.0434 21.0878 29.7799 20.7613 30.323 20.1802C30.8661 19.5991 31.1712 18.8111 31.1712 17.9891C31.1712 17.1675 30.8661 16.3795 30.323 15.7983C29.7713 15.2347 29.038 14.9202 28.2756 14.9202C26.7516 14.9194 25.3796 16.5324 25.3796 17.9891ZM29.0928 18.8643C28.6351 19.332 27.9153 19.332 27.4577 18.8643C27.1269 18.5104 27.0279 17.9783 27.2069 17.5159C27.3859 17.0532 27.8078 16.7516 28.2756 16.7516C28.7434 16.7516 29.165 17.0532 29.3439 17.5159C29.5229 17.9782 29.4235 18.5103 29.0928 18.8643Z" />
<path d="M39.7042 10.5385C39.8272 10.5385 39.9437 10.5468 40.078 10.5555C40.3175 10.5721 40.5532 10.4812 40.7271 10.3042C40.901 10.1281 41 9.88301 41 9.62671V4.38831C40.9988 3.40138 40.6324 2.45553 39.9802 1.75774C39.328 1.05995 38.4441 0.667355 37.5217 0.666504H4.47826C3.5559 0.66775 2.67195 1.05987 2.01982 1.75774C1.36804 2.45558 1.00119 3.4014 1 4.38831V9.62671C1.00349 9.88425 1.10598 10.1293 1.28339 10.3038C1.46157 10.4795 1.69954 10.57 1.94177 10.5538C2.05707 10.5468 2.17275 10.5385 2.29581 10.5385C3.14092 10.5439 3.95067 10.9019 4.5528 11.5358C5.15529 12.1701 5.50234 13.0308 5.52097 13.9347C5.49962 14.7181 5.24263 15.4733 4.78844 16.088C4.33425 16.7032 3.7073 17.1451 3.00002 17.3486C2.65064 17.4579 2.28457 17.4903 1.92315 17.4446C1.68363 17.4271 1.448 17.5185 1.27409 17.6959C1.0994 17.8712 1.00002 18.1163 1.00002 18.373V23.6114C1.00118 24.5983 1.36803 25.5441 2.01984 26.2419C2.67202 26.9398 3.55594 27.3319 4.47828 27.3332H37.5217C38.4441 27.3323 39.328 26.9398 39.9802 26.2419C40.6323 25.5441 40.9988 24.5983 41 23.6114V18.373C40.9988 18.1158 40.8991 17.8708 40.724 17.6951C40.5497 17.516 40.3125 17.4251 40.0718 17.4446C39.712 17.4899 39.3478 17.457 39 17.3486C38.2927 17.1451 37.6658 16.7031 37.2116 16.088C36.7574 15.4732 36.5004 14.7181 36.4791 13.9347C36.4973 13.0308 36.8448 12.1701 37.4468 11.5358C38.0493 10.9015 38.8591 10.5435 39.7042 10.5385ZM34.7399 13.9001C34.7481 15.0935 35.1207 16.2516 35.8021 17.1966C36.483 18.142 37.4345 18.8224 38.5113 19.1344C38.7563 19.2125 39.0071 19.2669 39.2609 19.2968V23.6113C39.2606 24.1048 39.0769 24.5779 38.7509 24.9268C38.4248 25.2753 37.983 25.4718 37.5218 25.4722H12.3959V24.4387C12.3959 23.9249 12.0065 23.5083 11.5263 23.5083C11.0461 23.5083 10.6568 23.9249 10.6568 24.4387V25.4722H4.47858C4.0174 25.4718 3.57524 25.2757 3.24916 24.9268C2.92347 24.5779 2.73984 24.1048 2.73946 23.6113V19.2968C2.99334 19.2669 3.2445 19.2125 3.48946 19.1344C4.56593 18.8224 5.51738 18.1416 6.19873 17.1966C6.87963 16.2512 7.25264 15.0935 7.26049 13.8997C7.23254 12.5912 6.757 11.3389 5.92355 10.3801C5.09047 9.42144 3.95733 8.82325 2.73955 8.69873V4.38834C2.73993 3.89487 2.92356 3.42175 3.24925 3.07284C3.57533 2.72393 4.0175 2.52786 4.47867 2.52745H10.6568V3.56092C10.6568 4.07474 11.0462 4.49137 11.5264 4.49137C12.0066 4.49137 12.396 4.07474 12.396 3.56092V2.52745H37.5219C37.9831 2.52786 38.4249 2.72434 38.7509 3.07284C39.077 3.42175 39.2607 3.89488 39.261 4.38834V8.69873C38.0433 8.82335 36.9101 9.42149 36.077 10.3801C35.2436 11.3388 34.7678 12.5916 34.7399 13.9001ZM12.3956 18.9362V20.0684C12.3956 20.5823 12.0062 20.9989 11.526 20.9989C11.0458 20.9989 10.6564 20.5823 10.6564 20.0684V18.9362C10.6564 18.4223 11.0458 18.0057 11.526 18.0057C12.0062 18.0057 12.3956 18.4223 12.3956 18.9362ZM12.3956 13.4336V14.5659C12.3956 15.0797 12.0062 15.4964 11.526 15.4964C11.0458 15.4964 10.6564 15.0797 10.6564 14.5659V13.4336C10.6564 12.9198 11.0458 12.5032 11.526 12.5032C12.0062 12.5032 12.3956 12.9198 12.3956 13.4336ZM12.3956 7.93108V9.06336C12.3956 9.57718 12.0062 9.99381 11.526 9.99381C11.0458 9.99381 10.6564 9.57718 10.6564 9.06336V7.93108C10.6564 7.41726 11.0458 7.00063 11.526 7.00063C12.0062 7.00063 12.3956 7.41726 12.3956 7.93108ZM28.6371 10.1758L20.2593 19.1405C19.9181 19.4928 19.3762 19.4878 19.0403 19.1289C18.7049 18.77 18.7003 18.1897 19.0298 17.8246L27.4076 8.85979C27.7484 8.50589 28.2919 8.51045 28.6277 8.86976C28.9638 9.22906 28.9678 9.81067 28.6371 10.1758ZM21.4391 12.2024C22.0769 11.5212 22.3828 10.5608 22.266 9.60462C22.1491 8.648 21.6231 7.80433 20.8429 7.32166C20.0622 6.83898 19.1165 6.77169 18.2835 7.14056C17.4508 7.50942 16.8254 8.27167 16.5917 9.20297C16.358 10.1347 16.5428 11.1295 17.0917 11.895C17.6402 12.6601 18.4904 13.1087 19.3918 13.1087C20.1597 13.1087 20.8957 12.7831 21.4391 12.2024ZM18.573 9.13609C18.9038 8.78261 19.4018 8.67668 19.8339 8.86818C20.266 9.05967 20.5474 9.51077 20.5474 10.0113C20.5474 10.5118 20.266 10.9629 19.8339 11.1549C19.4018 11.3464 18.9042 11.2404 18.5734 10.8865C18.3556 10.6552 18.2329 10.3399 18.2329 10.0113C18.2329 9.68275 18.3552 9.36788 18.573 9.13609ZM25.3796 17.9891C25.3796 18.8111 25.6848 19.5992 26.2279 20.1802C26.771 20.7612 27.5074 21.0878 28.2756 21.0878C29.0434 21.0878 29.7799 20.7613 30.323 20.1802C30.8661 19.5991 31.1712 18.8111 31.1712 17.9891C31.1712 17.1675 30.8661 16.3795 30.323 15.7983C29.7713 15.2347 29.038 14.9202 28.2756 14.9202C26.7516 14.9194 25.3796 16.5324 25.3796 17.9891ZM29.0928 18.8643C28.6351 19.332 27.9153 19.332 27.4577 18.8643C27.1269 18.5104 27.0279 17.9783 27.2069 17.5159C27.3859 17.0532 27.8078 16.7516 28.2756 16.7516C28.7434 16.7516 29.165 17.0532 29.3439 17.5159C29.5229 17.9782 29.4235 18.5103 29.0928 18.8643Z" stroke-width="1.2" mask="url(#path-1-outside-1_4115_41465)"/>
</svg>
