<svg width="24" height="24" viewBox="0 0 24 24" xmlns="http://www.w3.org/2000/svg">
<path d="M2 8.85714H17C17 8.85714 14.5 9.46429 13.25 11.2857C9.5 11.2857 2 11.2857 2 11.2857V8.85714ZM2 4H17V6.42857H2V4ZM2 13.7143H12V16.1429H2V13.7143Z"/>
<path d="M21 14H20.5V13C20.5 11.62 19.38 10.5 18 10.5C16.62 10.5 15.5 11.62 15.5 13V14H15C14.45 14 14 14.45 14 15V20C14 20.55 14.45 21 15 21H21C21.55 21 22 20.55 22 20V15C22 14.45 21.55 14 21 14ZM18 18.5C17.45 18.5 17 18.05 17 17.5C17 16.95 17.45 16.5 18 16.5C18.55 16.5 19 16.95 19 17.5C19 18.05 18.55 18.5 18 18.5ZM19.55 14H16.45V13C16.45 12.145 17.145 11.45 18 11.45C18.855 11.45 19.55 12.145 19.55 13V14Z"/>
</svg>
