<svg width="24" height="24" viewBox="0 0 24 24" xmlns="http://www.w3.org/2000/svg">
<g clip-path="url(#clip0_1_6564)">
<path d="M16.5 14H15.71L15.43 13.73C16.41 12.59 17 11.11 17 9.5C17 5.91 14.09 3 10.5 3C7.08003 3 4.28003 5.64 4.03003 9H6.05003C6.30003 6.75 8.18003 5 10.5 5C12.99 5 15 7.01 15 9.5C15 11.99 12.99 14 10.5 14C10.33 14 10.17 13.97 10 13.95V15.97C10.17 15.99 10.33 16 10.5 16C12.11 16 13.59 15.41 14.73 14.43L15 14.71V15.5L20 20.49L21.49 19L16.5 14Z" />
<path d="M7.47007 10.82L5.00007 13.29L2.53007 10.82L1.82007 11.53L4.29007 14L1.82007 16.47L2.53007 17.18L5.00007 14.71L7.47007 17.18L8.18007 16.47L5.71007 14L8.18007 11.53L7.47007 10.82Z" />
</g>
<defs>
<clipPath id="clip0_1_6564">
<rect width="24" height="24" />
</clipPath>
</defs>
</svg>
